<svg width="65" height="36" viewBox="0 0 65 36" fill="none" xmlns="http://www.w3.org/2000/svg">
<rect x="0.5" y="0.5" width="64" height="35" rx="4.5" fill="white" stroke="#C0C0C0"/>
<path fill-rule="evenodd" clip-rule="evenodd" d="M32.1865 17.409C32.1865 17.409 32.3685 17.2851 32.1212 15.657C31.8714 14.0278 31.3452 12.0657 29.5782 11.0842C27.8146 10.1026 26.6573 10 24.1755 10C21.6971 9.99904 20.1394 10.2062 18.6273 11.4481C17.1134 12.6872 16.5881 14.3424 16.4392 15.4285C16.3011 16.4672 16.2655 16.4662 16.2614 17.8892L16.2539 17.9085V18.0924L16.2622 18.1118C16.2655 19.5348 16.2944 19.5328 16.4359 20.5715C16.5848 21.6566 17.1109 23.3109 18.6239 24.5519C20.137 25.7928 21.693 26 24.1747 26C26.6564 26 27.8146 25.8964 29.5782 24.9139C31.3452 23.9314 31.8714 21.9325 32.1212 20.3043C32.3685 18.6752 32.1874 18.1234 32.1874 18.1234H24.3824V17.411H32.1865V17.409ZM46.9006 13.8391C46.9006 10.5576 44.2948 10.2701 43.4965 10.2701H32.898V17.409H44.2948C44.2948 17.409 46.9006 17.1225 46.9006 13.84V13.8391ZM43.6057 18.1234H32.898V25.7386H44.4148C44.4148 25.7386 47.0487 25.4937 47.0487 21.9305C47.0487 18.3683 44.4148 18.1234 43.6057 18.1234Z" fill="#505050"/>
</svg>
