<svg width="65" height="36" viewBox="0 0 65 36" fill="none" xmlns="http://www.w3.org/2000/svg">
<rect x="0.5" y="0.5" width="64" height="35" rx="4.5" fill="white" stroke="#C0C0C0"/>
<path d="M20.1433 13.2073C19.3276 13.2036 18.5292 13.4409 17.8489 13.8893C17.1686 14.3377 16.637 14.9771 16.3213 15.7266C16.0057 16.4761 15.9201 17.302 16.0755 18.0999C16.2309 18.8979 16.6203 19.6319 17.1944 20.2094C17.7684 20.7868 18.5014 21.1816 19.3007 21.3439C20.0999 21.5062 20.9295 21.4286 21.6846 21.1211C22.4396 20.8136 23.0861 20.2898 23.5425 19.6161C23.9988 18.9424 24.2444 18.149 24.2482 17.3362V17.3122C24.2598 16.2366 23.8427 15.2003 23.0884 14.4308C22.3342 13.6612 21.3044 13.2212 20.225 13.2073H20.1433ZM20.1433 20.0233C19.6064 20.0354 19.0779 19.8887 18.6246 19.6016C18.1714 19.3145 17.8138 18.8999 17.5969 18.4103C17.3801 17.9206 17.3139 17.3779 17.4065 16.8508C17.4992 16.3236 17.7466 15.8357 18.1176 15.4486C18.4885 15.0616 18.9662 14.7928 19.4904 14.6763C20.0146 14.5599 20.5617 14.6009 21.0625 14.7942C21.5633 14.9875 21.9954 15.3244 22.304 15.7624C22.6127 16.2004 22.7841 16.7197 22.7966 17.2547V17.3122C22.8023 17.662 22.7388 18.0094 22.6098 18.3347C22.4808 18.66 22.2887 18.9568 22.0445 19.2081C21.8004 19.4594 21.5089 19.6603 21.1868 19.7993C20.8647 19.9384 20.5183 20.0128 20.1673 20.0185L20.1433 20.0233ZM49.041 13.2073L45.8975 20.8423L45.1236 22.7343L44.6958 23.7785H43.1432L44.3545 20.8471L41.134 13.2073H42.7731L45.1236 18.9551L47.4788 13.2073H49.041ZM28.7857 14.5629C27.3437 14.5629 26.5939 15.3388 26.5939 16.8763V21.4171H25.1278V16.7662C25.1011 15.7944 25.4628 14.8518 26.1334 14.1457C26.8041 13.4397 27.7288 13.0281 28.704 13.0014C29.6792 12.9747 30.6251 13.3352 31.3337 14.0035C32.0422 14.6718 32.4553 15.5932 32.482 16.565C32.4868 16.632 32.4868 16.6992 32.482 16.7662V21.4171H30.992V16.8763C30.992 15.3388 30.2613 14.5629 28.8097 14.5629H28.7857ZM34.8661 16.5698C34.9854 16.0158 35.2917 15.5194 35.7338 15.1633C36.176 14.8071 36.7274 14.6129 37.2959 14.6129C37.8645 14.6129 38.4158 14.8071 38.858 15.1633C39.3002 15.5194 39.6064 16.0158 39.7257 16.5698H34.8661ZM41.2927 17.2068C41.2857 16.6838 41.1755 16.1673 40.9682 15.6867C40.7609 15.2062 40.4607 14.771 40.0847 14.4061C39.7086 14.0411 39.2641 13.7536 38.7766 13.5598C38.289 13.366 37.7679 13.2699 37.243 13.2768C36.7182 13.2837 36.1998 13.3936 35.7176 13.6001C35.2353 13.8067 34.7986 14.1058 34.4324 14.4806C34.0662 14.8553 33.7776 15.2982 33.5832 15.7841C33.3887 16.2699 33.2922 16.7892 33.2992 17.3122C33.2975 18.3835 33.7127 19.4137 34.4576 20.1861C34.8178 20.5731 35.2543 20.8818 35.7398 21.0928C36.2254 21.3038 36.7494 21.4126 37.2791 21.4123C38.0434 21.4173 38.7942 21.212 39.449 20.819C40.1037 20.426 40.6369 19.8606 40.9898 19.185C40.9898 19.185 40.9898 19.1515 40.9898 19.1323H39.4036C39.1406 19.4115 38.8225 19.6335 38.4693 19.7843C38.1161 19.9352 37.7355 20.0116 37.3512 20.0089C36.7475 19.9986 36.1661 19.7801 35.706 19.3906C35.2458 19.001 34.9355 18.4646 34.8277 17.8726H41.2686C41.2686 17.7194 41.3023 17.3936 41.3023 17.1973" fill="#666666"/>
</svg>
