<svg width="65" height="36" viewBox="0 0 65 36" fill="none" xmlns="http://www.w3.org/2000/svg">
<rect x="0.5" y="0.5" width="64" height="35" rx="4.5" fill="white" stroke="#C0C0C0"/>
<path d="M32.9989 18.0039C32.9989 15.9731 31.1928 14.4349 28.9702 14.2766L11.8243 13L14.1459 15.915L8 18.0039L14.1448 20.0889L11.8243 23L28.9713 21.7215C31.1939 21.5189 33 20.026 33 17.9951" fill="#BBBBBB"/>
<path d="M29.4983 20.3975C27.9213 20.3975 27.1208 19.6323 27.1208 18.1249L27.0703 15.418H28.5727L28.5288 17.9772C28.5288 18.6807 28.8984 19.0975 29.5158 19.0975C30.1332 19.0975 30.5028 18.7049 30.5028 18.018L30.4534 15.418H31.9558L31.9054 18.0841C31.9054 19.6411 31.118 20.3997 29.4983 20.3997" fill="#1C1C1C"/>
<path d="M36.6372 20.3269L34.2565 17.4942L34.4758 20.3269H33.0469V15.418H34.3179L36.6208 18.1459L36.396 15.418H37.8293V20.3269H36.6372Z" fill="#1C1C1C"/>
<path d="M40.387 15.4316H38.9844V20.3406H40.387V15.4316Z" fill="#1C1C1C"/>
<path d="M43.0408 20.3406V16.4483L41.5 16.5585V15.4316H45.9852V16.5585L44.4434 16.4483V20.3406H43.0408Z" fill="#1C1C1C"/>
<path d="M47.0273 20.3406V15.4316H51.1452V16.5729L48.4036 16.4626V17.4065H50.9632V18.3228H48.3992V19.3041L51.1825 19.1938V20.3406H47.0273Z" fill="#1C1C1C"/>
<path d="M54.054 15.4316H52.2227V20.3406H53.9937C55.8766 20.3406 56.9996 19.4111 56.9996 17.8552V17.8409C56.9996 16.3093 55.926 15.4316 54.054 15.4316ZM55.5827 17.8938C55.5827 18.7087 55.0531 19.1575 54.0913 19.1575H53.6252V16.6148H54.0913C55.0531 16.6148 55.5827 17.0635 55.5827 17.8784V17.8938Z" fill="#1C1C1C"/>
<path d="M17.7207 20.3269L17.8304 18.2098L15.9102 15.418H17.6735L18.5059 16.9429L19.3832 15.418H21.1115L19.1847 18.2132L19.2998 20.3291L17.7207 20.3269Z" fill="#1C1C1C"/>
<path d="M23.5942 20.4188C22.106 20.4188 20.9414 19.3084 20.9414 17.8893V17.875C20.9414 16.4482 22.1126 15.3301 23.6095 15.3301C25.1064 15.3301 26.2634 16.4415 26.2634 17.8595V17.875C26.2579 19.2996 25.0856 20.4188 23.5942 20.4188ZM23.5942 16.5375C22.8901 16.5375 22.3583 17.1053 22.3583 17.8606V17.875C22.3583 18.6369 22.8956 19.2114 23.6095 19.2114C24.3234 19.2114 24.8454 18.6435 24.8454 17.8882V17.8739C24.8454 17.1119 24.3081 16.5375 23.5942 16.5375Z" fill="#1C1C1C"/>
</svg>
