<svg width="65" height="36" viewBox="0 0 65 36" fill="none" xmlns="http://www.w3.org/2000/svg">
<g clip-path="url(#clip0_115_504)">
<path d="M60 0.5H5C2.51472 0.5 0.5 2.51472 0.5 5V31C0.5 33.4853 2.51472 35.5 5 35.5H60C62.4853 35.5 64.5 33.4853 64.5 31V5C64.5 2.51472 62.4853 0.5 60 0.5Z" fill="white" stroke="#C0C0C0"/>
<path fill-rule="evenodd" clip-rule="evenodd" d="M39.6332 18.7091H43.9351V19.8424H40.95V20.8309H43.8524V21.8302H40.95V22.8706H43.9362V23.9765H39.6332V18.7091ZM52.2479 20.7614C53.865 20.8427 54 21.6364 54 22.483C54 23.4695 53.1752 24 52.3127 24H49.5485V22.8706H51.7025C52.0689 22.8706 52.6131 22.8706 52.6131 22.3646C52.6131 22.1248 52.5169 21.9711 52.1275 21.931C51.8251 21.9016 51.5217 21.881 51.2179 21.8693C49.7578 21.8322 49.4166 21.1177 49.4166 20.2486C49.4166 19.2611 50.1231 18.7218 50.9856 18.7218H53.7488V19.8503H51.7266C51.2661 19.8542 50.7699 19.7964 50.7699 20.3073C50.7699 20.6303 51.0149 20.6959 51.3257 20.7252C51.4335 20.7252 52.1526 20.7624 52.2479 20.7614ZM47.2929 20.7614C48.91 20.8427 49.0461 21.6364 49.0461 22.483C49.0461 23.4695 48.2202 24 47.3588 24H44.5956V22.8706H46.7486C47.1139 22.8706 47.6582 22.8706 47.6582 22.3646C47.6582 22.1248 47.5619 21.9711 47.1725 21.931C46.8704 21.9016 46.5674 21.8811 46.264 21.8693C44.8018 21.8322 44.4637 21.1177 44.4637 20.2486C44.4637 19.2611 45.1691 18.7218 46.0306 18.7218H48.7938V19.8503H46.7737C46.3121 19.8542 45.8149 19.7964 45.8149 20.3073C45.8149 20.6303 46.0609 20.6959 46.3728 20.7252C46.4796 20.7252 47.1966 20.7624 47.2929 20.7614ZM31.2451 21.1148H29.606V19.8503H31.2493C31.8009 19.8503 31.9747 20.1977 31.9747 20.4571C31.9747 20.8094 31.7831 21.1148 31.2451 21.1148ZM28.2778 23.4823L26.3875 21.2831L28.2778 19.2258V23.4823ZM23.2474 22.8706H20.2121V21.8312H23.1156V20.8329H20.2121V19.8444L23.4128 19.8512L24.695 21.2841L23.2474 22.8706ZM31.6879 18.7208H27.0689L25.5616 20.3553L24.1015 18.7091H18.9152V23.9765H23.9341L25.5145 22.2354L27.0574 23.9892H29.582V22.2001H31.3529C32.0343 22.2001 33.2799 22.1776 33.2799 20.3308C33.2799 19.0144 32.3347 18.7208 31.6879 18.7208ZM36.9098 21.0443H35.2696V19.8503H36.9129C37.4645 19.8503 37.6383 20.1977 37.6383 20.4571C37.6383 20.8094 37.4467 21.0443 36.9087 21.0443H36.9098ZM38.0454 21.5894C38.7645 21.2371 38.955 20.7673 38.955 20.1311C38.955 19.0037 38.0224 18.7218 37.3755 18.7218H33.9529V23.9892H35.2707V22.1297H36.9935C37.4478 22.1297 37.6268 22.577 37.6393 23.0232L37.6739 23.9892H38.955L38.9068 22.9068C38.9068 22.0592 38.6682 21.6589 38.0454 21.5894ZM34.4804 17.2733H35.7972V12H34.4804V17.2733ZM23.7069 12.0059H28.0088V13.1412H25.0226V14.1297H27.923V15.127H25.0237V16.1674H28.0067V17.2733H23.7059V12.0049L23.7069 12.0059ZM31.7444 14.3293H30.1063V13.1353H31.7517C32.3002 13.1353 32.475 13.4828 32.475 13.7411C32.475 14.0944 32.2834 14.3293 31.7444 14.3293ZM32.8821 14.8745C33.6012 14.5231 33.7928 14.0524 33.7928 13.4162C33.7928 12.2877 32.8581 12.0069 32.2123 12.0069H28.7907V17.2733H30.1074V15.4157H31.8302C32.2845 15.4157 32.4645 15.862 32.476 16.3093L32.5116 17.2733H33.7928L33.7457 16.1908C33.7457 15.3452 33.5049 14.9449 32.8832 14.8745H32.8821ZM11.399 14.9606L12.184 13.1206L13.0015 14.9606H11.399ZM20.6716 12.0059L19.0565 15.539L17.4467 12.0059H15.3827V17.0795L13.0862 12.0049H11.3446L9 17.2733H10.3879L10.9008 16.0979H13.5279L14.0492 17.2733H16.6983V13.3633L18.4578 17.2733H19.6552L21.4555 13.4289V17.2733H22.7722V12.0059H20.6716ZM41.2943 14.9635L42.0783 13.1226L42.9041 14.9635H41.2943ZM49.3789 12.0049V15.6516L47.1589 12.0049H45.2131V16.9513L42.9732 12.0059H41.2315L39.4176 16.0871C39.4176 16.0871 38.6515 16.0871 38.574 16.0675C38.2579 16.0039 37.7618 15.7837 37.7565 14.8549V14.4732C37.7565 13.2381 38.4379 13.148 39.313 13.148H40.1252V12.0029H38.4065C37.8089 12.0029 36.5068 12.4522 36.4628 14.6161C36.4314 16.0744 37.0793 17.2762 38.5384 17.2762H40.2738L40.7877 16.0998H43.4149L43.9351 17.2762H46.5319V13.4191L48.9006 17.2753H50.6956V12.0049H49.3789Z" fill="#505050"/>
</g>
<defs>
<clipPath id="clip0_115_504">
<rect width="65" height="36" fill="white"/>
</clipPath>
</defs>
</svg>
