<svg width="65" height="36" viewBox="0 0 65 36" fill="none" xmlns="http://www.w3.org/2000/svg">
<g clip-path="url(#clip0_115_507)">
<path d="M60 0.5H5C2.51472 0.5 0.5 2.51472 0.5 5V31C0.5 33.4853 2.51472 35.5 5 35.5H60C62.4853 35.5 64.5 33.4853 64.5 31V5C64.5 2.51472 62.4853 0.5 60 0.5Z" fill="white" stroke="#C0C0C0"/>
<mask id="mask0_115_507" style="mask-type:luminance" maskUnits="userSpaceOnUse" x="12" y="9" width="41" height="17">
<path d="M53 9H12V26H53V9Z" fill="white"/>
</mask>
<g mask="url(#mask0_115_507)">
<path d="M19.4945 11.1917C19.0141 11.7659 18.2453 12.2188 17.4766 12.1541C17.3805 11.3777 17.7568 10.5528 18.1973 10.0433C18.6777 9.4529 19.5185 9.03235 20.1992 9C20.2793 9.80875 19.967 10.6013 19.4945 11.1917ZM20.1912 12.3078C19.0781 12.2431 18.1252 12.9467 17.5967 12.9467C17.0601 12.9467 16.2514 12.3402 15.3705 12.3563C14.2254 12.3725 13.1603 13.0276 12.5758 14.0709C11.3746 16.1575 12.2635 19.2469 13.4246 20.9453C13.9932 21.7864 14.6738 22.7084 15.5707 22.676C16.4195 22.6437 16.7558 22.118 17.7808 22.118C18.8139 22.118 19.1101 22.676 20.007 22.6598C20.9359 22.6437 21.5205 21.8187 22.0891 20.9776C22.7377 20.0233 23.0019 19.0932 23.018 19.0447C23.0019 19.0285 21.2242 18.3411 21.2082 16.2707C21.1922 14.54 22.6096 13.715 22.6736 13.6665C21.8728 12.4696 20.6236 12.3402 20.1912 12.3078ZM26.6215 9.96242V22.5709H28.5594V18.2602H31.242C33.6924 18.2602 35.4141 16.5618 35.4141 14.1032C35.4141 11.6446 33.7244 9.96242 31.306 9.96242H26.6215ZM28.5594 11.6123H30.7935C32.4752 11.6123 33.4361 12.5181 33.4361 14.1113C33.4361 15.7046 32.4752 16.6185 30.7855 16.6185H28.5594V11.6123ZM38.9535 22.6679C40.1707 22.6679 41.2998 22.0452 41.8123 21.0585H41.8523V22.5709H43.6461V16.295C43.6461 14.4753 42.2047 13.3026 39.9865 13.3026C37.9285 13.3026 36.407 14.4914 36.351 16.1251H38.0967C38.2408 15.3487 38.9535 14.8392 39.9305 14.8392C41.1156 14.8392 41.7803 15.3972 41.7803 16.4244V17.1199L39.3619 17.2655C37.1117 17.4029 35.8945 18.333 35.8945 19.9505C35.8945 21.5842 37.1517 22.6679 38.9535 22.6679ZM39.474 21.1717C38.441 21.1717 37.7844 20.6703 37.7844 19.902C37.7844 19.1094 38.417 18.6484 39.6262 18.5756L41.7803 18.4382V19.1499C41.7803 20.3306 40.7873 21.1717 39.474 21.1717ZM46.0404 26C47.9303 26 48.8191 25.2721 49.5959 23.0642L52.9992 13.4239H51.0293L48.7471 20.8725H48.707L46.4248 13.4239H44.3988L47.682 22.6032L47.5058 23.1613C47.2096 24.1075 46.7291 24.4715 45.8723 24.4715C45.7201 24.4715 45.4238 24.4553 45.3037 24.4391V25.9515C45.4158 25.9838 45.8963 26 46.0404 26Z" fill="#505050"/>
</g>
</g>
<defs>
<clipPath id="clip0_115_507">
<rect width="65" height="36" fill="white"/>
</clipPath>
</defs>
</svg>
