<svg width="65" height="36" viewBox="0 0 65 36" fill="none" xmlns="http://www.w3.org/2000/svg">
<g clip-path="url(#clip0_115_517)">
<path d="M60 0.5H5C2.51472 0.5 0.5 2.51472 0.5 5V31C0.5 33.4853 2.51472 35.5 5 35.5H60C62.4853 35.5 64.5 33.4853 64.5 31V5C64.5 2.51472 62.4853 0.5 60 0.5Z" fill="white" stroke="#C0C0C0"/>
<path d="M45.7316 28.7335V28.7848H45.7831C45.7934 28.7848 45.8037 28.782 45.8109 28.7783C45.8141 28.7762 45.8168 28.7734 45.8186 28.7701C45.8204 28.7669 45.8213 28.7633 45.8212 28.7597C45.8213 28.756 45.8205 28.7524 45.8187 28.7491C45.8169 28.7458 45.8142 28.743 45.8109 28.741C45.8026 28.736 45.793 28.7334 45.7831 28.7335H45.7316ZM45.7831 28.6981C45.8098 28.6981 45.8304 28.7037 45.8449 28.7149C45.8521 28.7201 45.858 28.7267 45.8619 28.7344C45.8658 28.742 45.8678 28.7503 45.8675 28.7587C45.8675 28.7746 45.8624 28.7876 45.85 28.7979C45.8362 28.8088 45.8189 28.8154 45.8006 28.8166L45.8685 28.8884H45.816L45.7522 28.8175H45.7316V28.8884H45.6863V28.6981H45.7831ZM45.7697 28.9538C45.8042 28.9533 45.8378 28.9438 45.8665 28.9264C45.8951 28.909 45.9177 28.8845 45.9314 28.8558C45.9444 28.8265 45.9478 28.7944 45.941 28.7634C45.9343 28.7324 45.9177 28.7038 45.8933 28.6813C45.8605 28.6515 45.8161 28.6347 45.7697 28.6346C45.7464 28.6345 45.7233 28.6386 45.7017 28.6466C45.6802 28.6546 45.6606 28.6664 45.6441 28.6813C45.6282 28.6957 45.6156 28.7128 45.607 28.7317C45.5978 28.7514 45.5932 28.7727 45.5936 28.7942C45.5936 28.8166 45.5977 28.8371 45.607 28.8567C45.6154 28.8758 45.628 28.8931 45.6442 28.9076C45.6603 28.922 45.6795 28.9333 45.7007 28.9407C45.7213 28.95 45.745 28.9538 45.7697 28.9538ZM45.7697 28.5898C45.7998 28.5894 45.8297 28.5945 45.8577 28.6048C45.8856 28.6151 45.911 28.6303 45.9324 28.6495C45.9648 28.6779 45.9869 28.7145 45.9957 28.7545C46.0045 28.7945 45.9997 28.836 45.9818 28.8735C45.9577 28.9227 45.9139 28.9617 45.8593 28.9827C45.8245 28.9964 45.7866 29.0021 45.7488 28.9993C45.711 28.9965 45.6746 28.9852 45.6428 28.9666C45.611 28.9479 45.5848 28.9224 45.5665 28.8923C45.5482 28.8622 45.5384 28.8285 45.538 28.7942C45.5376 28.7536 45.5507 28.7139 45.5757 28.6802C45.6007 28.6466 45.6364 28.6206 45.678 28.6057C45.7073 28.5943 45.7389 28.5886 45.7707 28.5889L45.7697 28.5898ZM24.5526 27.8572C24.5526 27.4951 24.8141 27.1974 25.2425 27.1974C25.6513 27.1974 25.9273 27.482 25.9273 27.8572C25.9273 28.2324 25.6513 28.517 25.2425 28.517C24.8141 28.517 24.5526 28.2193 24.5526 27.8572ZM26.3938 27.8572V26.8269H25.8995V27.077C25.7419 26.8913 25.5041 26.7746 25.1807 26.7746C24.5423 26.7746 24.0428 27.2282 24.0428 27.8572C24.0428 28.4871 24.5433 28.9398 25.1807 28.9398C25.5041 28.9398 25.7419 28.8231 25.8995 28.6374V28.8875H26.3938V27.8572ZM43.1036 27.8572C43.1036 27.4951 43.3652 27.1974 43.7936 27.1974C44.2034 27.1974 44.4784 27.482 44.4784 27.8572C44.4784 28.2324 44.2034 28.517 43.7936 28.517C43.3652 28.517 43.1036 28.2193 43.1036 27.8572ZM44.9448 27.8572V26H44.4506V27.077C44.293 26.8913 44.0551 26.7746 43.7318 26.7746C43.0933 26.7746 42.5939 27.2282 42.5939 27.8572C42.5939 28.4871 43.0944 28.9398 43.7318 28.9398C44.0551 28.9398 44.293 28.8231 44.4506 28.6374V28.8875H44.9448V27.8572ZM32.5311 27.1759C32.8503 27.1759 33.0553 27.357 33.1078 27.6761H31.9267C31.9802 27.3784 32.1789 27.1759 32.5311 27.1759ZM32.5414 26.7746C31.8752 26.7746 31.4087 27.2151 31.4087 27.8572C31.4087 28.5123 31.8937 28.9398 32.5744 28.9398C32.9173 28.9398 33.2303 28.8623 33.5073 28.6505L33.2643 28.3192C33.0762 28.455 32.8437 28.5305 32.6032 28.5338C32.284 28.5338 31.9936 28.4003 31.9236 28.0298H33.6124C33.6165 27.9738 33.6216 27.9179 33.6216 27.8572C33.6165 27.2151 33.1798 26.7746 32.5414 26.7746ZM38.512 27.8572C38.512 27.4951 38.7745 27.1974 39.2019 27.1974C39.6107 27.1974 39.8877 27.482 39.8877 27.8572C39.8877 28.2324 39.6107 28.517 39.2019 28.517C38.7745 28.517 38.512 28.2193 38.512 27.8572ZM40.3532 27.8572V26.8269H39.8589V27.077C39.7013 26.8913 39.4645 26.7746 39.1411 26.7746C38.5027 26.7746 38.0033 27.2282 38.0033 27.8572C38.0033 28.4871 38.5027 28.9398 39.1411 28.9398C39.4645 28.9398 39.7013 28.8231 39.8589 28.6374V28.8875H40.3532V27.8572ZM35.7192 27.8572C35.7192 28.4825 36.2001 28.9398 36.9333 28.9398C37.2752 28.9398 37.5038 28.8707 37.751 28.6943L37.5141 28.3313C37.3428 28.4502 37.1337 28.5157 36.9179 28.5179C36.5235 28.5123 36.2331 28.2538 36.2331 27.8572C36.2331 27.4606 36.5235 27.202 36.9179 27.1974C37.1332 27.1995 37.342 27.2647 37.5131 27.3831L37.7499 27.021C37.5028 26.8437 37.2762 26.7746 36.9333 26.7746C36.2001 26.7746 35.7192 27.2319 35.7192 27.8572ZM42.0945 26.7746C41.9738 26.7715 41.8545 26.798 41.749 26.8512C41.6435 26.9044 41.5558 26.9824 41.4952 27.077V26.8269H41.005V28.8875H41.5003V27.7321C41.5003 27.3915 41.662 27.202 41.9853 27.202C42.0862 27.202 42.1902 27.2151 42.2943 27.2534L42.4477 26.8315C42.3343 26.7947 42.2149 26.7749 42.0945 26.7746ZM28.8394 26.9911C28.6016 26.8483 28.2731 26.7746 27.9127 26.7746C27.336 26.7746 26.9653 27.0257 26.9653 27.4344C26.9653 27.7704 27.2413 27.9785 27.75 28.0429L27.9837 28.0728C28.2545 28.1073 28.3822 28.1726 28.3822 28.2884C28.3822 28.4479 28.202 28.5385 27.8643 28.5385C27.5213 28.5385 27.2742 28.4395 27.1074 28.3238L26.8747 28.6719C27.1455 28.853 27.4884 28.9398 27.8591 28.9398C28.5161 28.9398 28.8961 28.6598 28.8961 28.2678C28.8961 27.9039 28.5974 27.7153 28.1021 27.6509L27.8684 27.6201C27.6552 27.594 27.4832 27.5557 27.4832 27.4176C27.4832 27.2664 27.6449 27.1759 27.9157 27.1759C28.2061 27.1759 28.4873 27.2758 28.6252 27.3532L28.8394 26.9911ZM35.2198 26.7746C35.0991 26.7713 34.9797 26.7977 34.8742 26.8509C34.7687 26.9042 34.681 26.9823 34.6205 27.077V26.8269H34.1303V28.8875H34.6246V27.7321C34.6246 27.3915 34.7863 27.202 35.1107 27.202C35.2105 27.202 35.3146 27.2151 35.4196 27.2534L35.572 26.8315C35.459 26.7948 35.3399 26.775 35.2198 26.7746ZM30.9999 26.8269H30.1905V26.2016H29.691V26.8269H29.2297V27.2366H29.691V28.1764C29.691 28.6551 29.896 28.9398 30.4809 28.9398C30.6951 28.9398 30.9422 28.8791 31.0987 28.7811L30.9566 28.3966C30.8238 28.468 30.6733 28.5078 30.519 28.5123C30.2718 28.5123 30.1905 28.3742 30.1905 28.167V27.2366H30.9999V26.8259V26.8269ZM23.6062 28.8875V27.594C23.6062 27.1068 23.2633 26.7793 22.7103 26.7746C22.421 26.7709 22.1213 26.8521 21.9112 27.1414C21.834 27.0245 21.7234 26.9288 21.5911 26.8642C21.4587 26.7997 21.3096 26.7687 21.1595 26.7746C21.0288 26.7687 20.8987 26.7939 20.782 26.8476C20.6654 26.9013 20.5662 26.9816 20.4943 27.0807V26.8269H20V28.8875H20.4984V27.7452C20.4984 27.3878 20.7177 27.1974 21.0555 27.1974C21.384 27.1974 21.5498 27.3915 21.5498 27.7405V28.8884H22.0502V27.7452C22.0502 27.3878 22.2778 27.1974 22.6063 27.1974C22.9441 27.1974 23.1057 27.3915 23.1057 27.7405V28.8884L23.6062 28.8875Z" fill="#231F20"/>
<path d="M47 21.3231V21H46.8787L46.7404 21.2217L46.602 21H46.4822V21.3231H46.5678V21.0793L46.6961 21.29H46.7846L46.9144 21.0793V21.3231H47ZM46.2382 21.3231V21.0552H46.3923V21H46V21.0552H46.1541V21.3231H46.2382Z" fill="#F79410"/>
<path d="M37 23H29V10H37V23Z" fill="#BBBBBB"/>
<path d="M29.6951 16.5C29.6938 15.2128 29.9908 13.9422 30.5633 12.7843C31.1359 11.6265 31.9692 10.6118 33 9.81703C31.7235 8.83151 30.1904 8.21865 28.5761 8.04851C26.9618 7.87837 25.3313 8.15781 23.8709 8.8549C22.4106 9.55198 21.1794 10.6386 20.3181 11.9905C19.4567 13.3424 19 14.9051 19 16.5C19 18.0949 19.4567 19.6576 20.3181 21.0095C21.1794 22.3614 22.4106 23.448 23.8709 24.1451C25.3313 24.8422 26.9618 25.1216 28.5761 24.9515C30.1904 24.7813 31.7235 24.1685 33 23.183C31.9692 22.3882 31.1359 21.3735 30.5633 20.2157C29.9908 19.0578 29.6938 17.7872 29.6951 16.5Z" fill="#666666"/>
<path d="M47 16.5C47 18.0949 46.5433 19.6576 45.6819 21.0095C44.8206 22.3614 43.5894 23.448 42.1291 24.1451C40.6688 24.8422 39.0382 25.1216 37.4239 24.9515C35.8096 24.7813 34.2765 24.1685 33 23.183C34.0309 22.3883 34.8642 21.3736 35.4368 20.2157C36.0094 19.0579 36.3062 17.7872 36.3049 16.5C36.3062 15.2128 36.0094 13.9421 35.4368 12.7843C34.8642 11.6264 34.0309 10.6117 33 9.81703C34.2765 8.83151 35.8096 8.21865 37.4239 8.04851C39.0382 7.87837 40.6688 8.15781 42.1291 8.8549C43.5894 9.55198 44.8206 10.6386 45.6819 11.9905C46.5433 13.3424 47 14.9051 47 16.5Z" fill="#9E9E9E"/>
</g>
<defs>
<clipPath id="clip0_115_517">
<rect width="65" height="36" fill="white"/>
</clipPath>
</defs>
</svg>
