<svg width="65" height="36" viewBox="0 0 65 36" fill="none" xmlns="http://www.w3.org/2000/svg">
<g clip-path="url(#clip0_115_527)">
<path d="M60 0.5H5C2.51472 0.5 0.5 2.51472 0.5 5V31C0.5 33.4853 2.51472 35.5 5 35.5H60C62.4853 35.5 64.5 33.4853 64.5 31V5C64.5 2.51472 62.4853 0.5 60 0.5Z" fill="white" stroke="#C0C0C0"/>
<path d="M29.6658 14.9704C29.8665 14.9705 30.0435 15.0998 30.1014 15.2887L31.0205 18.3052L33.1886 15.1662C33.2734 15.0439 33.4141 14.9707 33.5646 14.9704H35.1366C35.2379 14.9704 35.3308 15.0258 35.3778 15.114C35.4247 15.2023 35.4179 15.3088 35.3602 15.3906L30.1315 22.8084C30.0467 22.9286 29.9073 23.0002 29.7585 23H28.1883C28.0865 23 27.9931 22.9442 27.9463 22.8552C27.8996 22.7663 27.9072 22.6591 27.9662 22.5775L29.5941 20.3188L27.8626 15.3244C27.8342 15.2426 27.8477 15.1523 27.899 15.082C27.9503 15.0118 28.033 14.9702 28.121 14.9704H29.6658ZM22.9454 14.8258C23.6991 14.8258 24.4544 14.9873 24.793 15.4704L24.9024 15.6263L24.9717 15.1962C24.9926 15.0662 25.1066 14.9704 25.2406 14.9704H26.805C26.8845 14.9704 26.96 15.0046 27.0115 15.0641C27.0631 15.1235 27.0856 15.2022 27.073 15.2793L26.2275 20.5418C26.1929 20.7589 26.0025 20.9189 25.7789 20.9188H24.3698C24.2902 20.9187 24.2145 20.8843 24.1629 20.8247C24.1113 20.7651 24.0888 20.6862 24.1013 20.6089L24.1711 20.1817C24.1711 20.1817 23.3987 21.062 22.0058 21.062C21.1942 21.062 20.5121 20.8319 20.0354 20.2798C19.5157 19.6793 19.3031 18.8183 19.4526 17.9178C19.7402 16.1127 21.2167 14.8258 22.9454 14.8258ZM46.2478 14.8258C47.0016 14.8258 47.7563 14.9873 48.095 15.4704L48.2048 15.6263L48.2741 15.1962C48.2944 15.0661 48.4086 14.9701 48.5426 14.9704H50.106C50.1856 14.9703 50.2614 15.0045 50.3132 15.0639C50.3651 15.1233 50.388 15.202 50.3759 15.2793L49.5299 20.5418C49.4953 20.7587 49.3053 20.9187 49.0819 20.9188H47.6732C47.5934 20.9189 47.5175 20.8847 47.4656 20.825C47.4138 20.7654 47.3912 20.6864 47.4038 20.6089L47.4735 20.1817C47.4735 20.1817 46.7011 21.062 45.3082 21.062C44.4967 21.062 43.8155 20.8319 43.3378 20.2798C42.8181 19.6793 42.6065 18.8183 42.7555 17.9178C43.0431 16.1127 44.5191 14.8258 46.2478 14.8258ZM17.0399 12.0005C18.1333 12.0005 18.9568 12.284 19.4211 12.8202C19.8438 13.3085 19.9838 14.0056 19.8376 14.893C19.5133 16.9211 18.2713 17.9446 16.1194 17.9446H15.0852C14.8618 17.9447 14.6717 18.1047 14.6372 18.3216L14.2808 20.5423C14.2462 20.7594 14.0559 20.9194 13.8323 20.9192H12.2727C12.1931 20.9194 12.1174 20.8852 12.0656 20.8258C12.0137 20.7664 11.991 20.6876 12.0033 20.6103L13.3245 12.377C13.3593 12.1601 13.5496 12.0003 13.7731 12.0005H17.0399ZM40.3414 12.0005C41.4348 12.0005 42.2578 12.284 42.7216 12.8202C43.1444 13.3085 43.2853 14.0056 43.1386 14.893C42.8138 16.9211 41.5723 17.9446 39.4199 17.9446H38.3862C38.1628 17.9447 37.9727 18.1047 37.9382 18.3216L37.5632 20.6554C37.539 20.8071 37.4061 20.919 37.2498 20.9192H35.5732C35.4937 20.9192 35.4182 20.885 35.3665 20.8256C35.3149 20.7662 35.2923 20.6875 35.3047 20.6103L36.626 12.377C36.6608 12.1602 36.8508 12.0006 37.0741 12.0005H40.3414ZM53.7282 12C53.8078 12.0001 53.8833 12.0345 53.9349 12.094C53.9865 12.1535 54.0091 12.2322 53.9967 12.3094L52.6745 20.5423C52.6401 20.7596 52.4499 20.9192 52.2259 20.9192H50.8779C50.7984 20.9192 50.7229 20.885 50.6712 20.8256C50.6196 20.7662 50.597 20.6875 50.6095 20.6103L51.9503 12.2263C51.9712 12.0963 52.0849 12.0005 52.2188 12H53.7282ZM23.3165 16.4563C22.4257 16.4563 21.7044 17.0653 21.5635 17.9362C21.4899 18.3634 21.5778 18.7469 21.809 19.0164C22.0421 19.2878 22.4051 19.431 22.8594 19.431C23.7641 19.431 24.4735 18.8413 24.6244 17.9629C24.6927 17.5376 24.5981 17.1516 24.3598 16.8751C24.1219 16.6014 23.7608 16.4563 23.3165 16.4563ZM46.6175 16.4563C45.7267 16.4563 45.0063 17.0653 44.8645 17.9362C44.7919 18.3634 44.8788 18.7469 45.11 19.0164C45.3431 19.2878 45.7071 19.431 46.1604 19.431C47.0651 19.431 47.7754 18.8413 47.9254 17.9629C47.9947 17.5376 47.9001 17.1516 47.6608 16.8751C47.4229 16.6014 47.0618 16.4563 46.6175 16.4563ZM15.8242 13.7822H15.5983C15.4643 13.7822 15.3502 13.8779 15.3293 14.008L14.9835 16.1596L15.6065 16.1595C16.4302 16.1567 17.247 16.102 17.4168 15.0075C17.4822 14.6028 17.4297 14.3099 17.2582 14.1127C16.9706 13.7822 16.4141 13.7822 15.8242 13.7822ZM39.1261 13.7822H38.9002C38.7663 13.782 38.6523 13.8779 38.6318 14.008L38.2854 16.1596L38.908 16.1595C39.7322 16.1567 40.549 16.102 40.7182 15.0075C40.7837 14.6028 40.7316 14.3099 40.5601 14.1127C40.2726 13.7822 39.7156 13.7822 39.1261 13.7822Z" fill="#666666"/>
</g>
<defs>
<clipPath id="clip0_115_527">
<rect width="65" height="36" fill="white"/>
</clipPath>
</defs>
</svg>
