<svg width="65" height="36" viewBox="0 0 65 36" fill="none" xmlns="http://www.w3.org/2000/svg">
<g clip-path="url(#clip0_115_530)">
<path d="M60 0.5H5C2.51472 0.5 0.5 2.51472 0.5 5V31C0.5 33.4853 2.51472 35.5 5 35.5H60C62.4853 35.5 64.5 33.4853 64.5 31V5C64.5 2.51472 62.4853 0.5 60 0.5Z" fill="white" stroke="#C0C0C0"/>
<path fill-rule="evenodd" clip-rule="evenodd" d="M26.1076 24.6484L29.3104 12.2717H32.169L28.9672 24.6474H26.1085L26.1076 24.6484ZM24.8307 12.2747L22.2588 17.5206C21.6047 18.895 21.2229 19.5902 21.0365 20.4582H20.9971C21.0437 19.3575 20.9111 18.0051 20.8958 17.242L20.6153 12.2747H15.8005L15.7539 12.6083C16.9852 12.6083 17.7254 13.3345 17.9279 14.8237L18.8625 24.6484H21.8233L27.8139 12.2747H24.8307ZM46.739 17.3488C46.7076 16.4319 46.6843 15.1913 46.73 14.4402H46.6915C46.5212 15.0545 45.772 16.9003 45.4459 17.8073L44.3777 20.5192H46.8868L46.739 17.3478V17.3488ZM47.066 24.6484L46.9881 22.8085L43.4197 22.8055L42.6876 24.6484H39.587L45.2102 12.2947H49.0205L49.9704 24.6474H47.0651L47.066 24.6484ZM35.1764 25C33.1592 25 31.8186 24.2509 30.8607 23.5816L32.2236 21.1444C33.0812 21.7088 33.7506 22.3561 35.3018 22.3561C35.8081 22.3561 36.2831 22.2052 36.5564 21.6509C36.9534 20.8458 36.4703 20.4133 35.3484 19.6721L34.7946 19.2526C33.1431 17.9272 32.4262 16.6686 33.2058 14.4711C33.704 13.0658 35.0213 12 37.1872 12C38.6829 12 40.0925 12.7581 40.9106 13.4983L39.3451 15.6508C38.5422 14.8947 37.8799 14.5121 37.1245 14.5121C36.5241 14.5121 36.0653 14.7848 35.9094 15.1514C35.6047 15.8436 36.0026 16.314 36.8754 16.9473L37.5296 17.4367C39.5396 18.922 40.0145 20.4782 39.5163 21.9355C38.6434 24.4406 36.9453 25 35.1764 25Z" fill="#505050"/>
</g>
<defs>
<clipPath id="clip0_115_530">
<rect width="65" height="36" fill="white"/>
</clipPath>
</defs>
</svg>
