<svg width="34" height="34" viewBox="0 0 34 34" fill="none" xmlns="http://www.w3.org/2000/svg">
<path d="M25.3867 16.4617C25.3192 16.2878 25.2181 16.129 25.0892 15.9942L18.0058 8.91089C17.8737 8.7788 17.7169 8.67403 17.5444 8.60254C17.3718 8.53106 17.1868 8.49426 17 8.49426C16.6227 8.49426 16.2609 8.64413 15.9942 8.91089C15.8621 9.04298 15.7573 9.19979 15.6858 9.37237C15.6143 9.54495 15.5775 9.72993 15.5775 9.91673C15.5775 10.294 15.7274 10.6558 15.9942 10.9226L20.6692 15.5834H9.91667C9.54094 15.5834 9.18061 15.7326 8.91493 15.9983C8.64926 16.264 8.5 16.6243 8.5 17.0001C8.5 17.3758 8.64926 17.7361 8.91493 18.0018C9.18061 18.2675 9.54094 18.4167 9.91667 18.4167H20.6692L15.9942 23.0776C15.8614 23.2093 15.756 23.3659 15.6841 23.5386C15.6121 23.7112 15.5751 23.8964 15.5751 24.0834C15.5751 24.2704 15.6121 24.4556 15.6841 24.6282C15.756 24.8008 15.8614 24.9575 15.9942 25.0892C16.1259 25.222 16.2825 25.3274 16.4552 25.3993C16.6278 25.4712 16.813 25.5083 17 25.5083C17.187 25.5083 17.3722 25.4712 17.5448 25.3993C17.7175 25.3274 17.8741 25.222 18.0058 25.0892L25.0892 18.0059C25.2181 17.8712 25.3192 17.7123 25.3867 17.5384C25.5284 17.1935 25.5284 16.8066 25.3867 16.4617Z" fill="black"/>
</svg>
