<svg width="40" height="40" viewBox="0 0 40 40" fill="none" xmlns="http://www.w3.org/2000/svg">
<path d="M31.6668 6.66671H28.3335V5.00004C28.3335 4.55801 28.1579 4.13409 27.8453 3.82153C27.5328 3.50897 27.1089 3.33337 26.6668 3.33337C26.2248 3.33337 25.8009 3.50897 25.4883 3.82153C25.1758 4.13409 25.0002 4.55801 25.0002 5.00004V6.66671H15.0002V5.00004C15.0002 4.55801 14.8246 4.13409 14.512 3.82153C14.1994 3.50897 13.7755 3.33337 13.3335 3.33337C12.8915 3.33337 12.4675 3.50897 12.155 3.82153C11.8424 4.13409 11.6668 4.55801 11.6668 5.00004V6.66671H8.3335C7.00741 6.66671 5.73564 7.19349 4.79796 8.13117C3.86028 9.06886 3.3335 10.3406 3.3335 11.6667V31.6667C3.3335 32.9928 3.86028 34.2646 4.79796 35.2022C5.73564 36.1399 7.00741 36.6667 8.3335 36.6667H31.6668C32.9929 36.6667 34.2647 36.1399 35.2024 35.2022C36.14 34.2646 36.6668 32.9928 36.6668 31.6667V11.6667C36.6668 10.3406 36.14 9.06886 35.2024 8.13117C34.2647 7.19349 32.9929 6.66671 31.6668 6.66671ZM33.3335 31.6667C33.3335 32.1087 33.1579 32.5327 32.8453 32.8452C32.5328 33.1578 32.1089 33.3334 31.6668 33.3334H8.3335C7.89147 33.3334 7.46755 33.1578 7.15498 32.8452C6.84242 32.5327 6.66683 32.1087 6.66683 31.6667V20H33.3335V31.6667ZM33.3335 16.6667H6.66683V11.6667C6.66683 11.2247 6.84242 10.8008 7.15498 10.4882C7.46755 10.1756 7.89147 10 8.3335 10H11.6668V11.6667C11.6668 12.1087 11.8424 12.5327 12.155 12.8452C12.4675 13.1578 12.8915 13.3334 13.3335 13.3334C13.7755 13.3334 14.1994 13.1578 14.512 12.8452C14.8246 12.5327 15.0002 12.1087 15.0002 11.6667V10H25.0002V11.6667C25.0002 12.1087 25.1758 12.5327 25.4883 12.8452C25.8009 13.1578 26.2248 13.3334 26.6668 13.3334C27.1089 13.3334 27.5328 13.1578 27.8453 12.8452C28.1579 12.5327 28.3335 12.1087 28.3335 11.6667V10H31.6668C32.1089 10 32.5328 10.1756 32.8453 10.4882C33.1579 10.8008 33.3335 11.2247 33.3335 11.6667V16.6667Z" fill="black"/>
</svg>
