<svg width="34" height="34" viewBox="0 0 34 34" fill="none" xmlns="http://www.w3.org/2000/svg">
<path d="M28.3335 11.3333L19.8335 3.88168C19.0543 3.18474 18.0455 2.79944 17.0001 2.79944C15.9547 2.79944 14.946 3.18474 14.1668 3.88168L5.6668 11.3333C5.21682 11.7358 4.85774 12.2295 4.61347 12.7815C4.3692 13.3336 4.24534 13.9313 4.25013 14.535V26.9167C4.25013 28.0438 4.6979 29.1249 5.49493 29.9219C6.29196 30.7189 7.37296 31.1667 8.50013 31.1667H25.5001C26.6273 31.1667 27.7083 30.7189 28.5053 29.9219C29.3024 29.1249 29.7501 28.0438 29.7501 26.9167V14.5208C29.7529 13.9196 29.6281 13.3245 29.3839 12.7751C29.1397 12.2256 28.7817 11.7342 28.3335 11.3333ZM19.8335 28.3333H14.1668V21.25C14.1668 20.8743 14.3161 20.514 14.5817 20.2483C14.8474 19.9826 15.2077 19.8333 15.5835 19.8333H18.4168C18.7925 19.8333 19.1529 19.9826 19.4185 20.2483C19.6842 20.514 19.8335 20.8743 19.8335 21.25V28.3333ZM26.9168 26.9167C26.9168 27.2924 26.7675 27.6527 26.5019 27.9184C26.2362 28.1841 25.8759 28.3333 25.5001 28.3333H22.6668V21.25C22.6668 20.1228 22.219 19.0418 21.422 18.2448C20.625 17.4478 19.544 17 18.4168 17H15.5835C14.4563 17 13.3753 17.4478 12.5783 18.2448C11.7812 19.0418 11.3335 20.1228 11.3335 21.25V28.3333H8.50013C8.12441 28.3333 7.76408 28.1841 7.4984 27.9184C7.23272 27.6527 7.08347 27.2924 7.08347 26.9167V14.5208C7.08372 14.3197 7.12681 14.1209 7.20986 13.9377C7.29291 13.7545 7.41402 13.5911 7.56513 13.4583L16.0651 6.02084C16.3237 5.79372 16.656 5.66847 17.0001 5.66847C17.3443 5.66847 17.6766 5.79372 17.9351 6.02084L26.4351 13.4583C26.5862 13.5911 26.7074 13.7545 26.7904 13.9377C26.8735 14.1209 26.9165 14.3197 26.9168 14.5208V26.9167Z" fill="#496992"/>
</svg>
