<svg width="326" height="326" viewBox="0 0 326 326" fill="none" xmlns="http://www.w3.org/2000/svg">
<path d="M325.973 159.988C325.985 160.656 325.993 161.325 325.997 161.995L325.497 161.998C325.499 162.332 325.5 162.666 325.5 163C325.5 163.334 325.499 163.668 325.497 164.002L325.997 164.005C325.993 164.675 325.985 165.343 325.973 166.011L325.473 166.002C325.461 166.668 325.445 167.333 325.425 167.997L325.924 168.012C325.904 168.678 325.88 169.342 325.852 170.006L325.353 169.985C325.325 170.649 325.292 171.312 325.256 171.974L325.756 172.001C325.719 172.67 325.679 173.337 325.634 174.004L325.136 173.971C325.091 174.635 325.043 175.299 324.991 175.961L325.489 176.001C325.437 176.665 325.38 177.328 325.32 177.99L324.822 177.945C324.762 178.606 324.697 179.266 324.629 179.925L325.127 179.976C325.058 180.642 324.985 181.307 324.908 181.971L324.411 181.913C324.334 182.575 324.254 183.236 324.169 183.895L324.665 183.959C324.58 184.62 324.491 185.28 324.399 185.939L323.903 185.869C323.811 186.526 323.714 187.182 323.614 187.836L324.108 187.912C324.007 188.574 323.901 189.234 323.792 189.893L323.299 189.811C323.19 190.468 323.077 191.124 322.96 191.779L323.452 191.867C323.335 192.523 323.213 193.178 323.088 193.832L322.597 193.738C322.472 194.389 322.344 195.04 322.211 195.688L322.701 195.789C322.567 196.444 322.429 197.098 322.288 197.751L321.799 197.645C321.658 198.296 321.512 198.945 321.363 199.593L321.851 199.705C321.701 200.355 321.548 201.004 321.39 201.65L320.904 201.532C320.748 202.177 320.587 202.821 320.422 203.463L320.907 203.587C320.741 204.234 320.571 204.881 320.397 205.525L319.914 205.395C319.741 206.038 319.564 206.679 319.383 207.319L319.864 207.455C319.808 207.653 319.752 207.85 319.695 208.047C319.676 207.898 319.656 207.75 319.636 207.601L318.645 207.735C318.713 208.234 318.776 208.734 318.836 209.236L318.829 209.234C318.64 209.87 318.448 210.505 318.252 211.138L319.207 211.434C319.3 211.134 319.392 210.833 319.483 210.532C319.521 210.888 319.556 211.245 319.589 211.602L319.091 211.649C319.151 212.3 319.205 212.953 319.253 213.608L319.751 213.572C319.799 214.231 319.84 214.892 319.873 215.554L319.374 215.579C319.408 216.231 319.434 216.885 319.455 217.54L319.954 217.525C319.975 218.184 319.988 218.844 319.995 219.506L319.495 219.511C319.496 219.641 319.497 219.771 319.498 219.901C319.499 220.101 319.5 220.3 319.5 220.5C319.5 220.659 319.5 220.817 319.499 220.976C319.498 221.147 319.497 221.318 319.495 221.489L319.995 221.494C319.988 222.156 319.975 222.816 319.954 223.475L319.455 223.46C319.434 224.115 319.408 224.769 319.374 225.421L319.873 225.446C319.84 226.108 319.799 226.769 319.751 227.427L319.253 227.392C319.205 228.047 319.151 228.7 319.091 229.351L319.589 229.398C319.528 230.056 319.46 230.712 319.385 231.367L318.889 231.31C318.814 231.964 318.733 232.615 318.645 233.265L319.141 233.332C319.053 233.986 318.958 234.637 318.856 235.287L318.362 235.209C318.261 235.86 318.152 236.509 318.037 237.155L318.53 237.242C318.414 237.892 318.292 238.54 318.163 239.185L317.673 239.087C317.544 239.732 317.409 240.375 317.268 241.015L317.756 241.123C317.613 241.768 317.464 242.411 317.308 243.051L316.822 242.933C316.667 243.571 316.505 244.206 316.337 244.839L316.82 244.967C316.65 245.606 316.474 246.243 316.292 246.877L315.811 246.738C315.629 247.368 315.441 247.996 315.247 248.621L315.724 248.77C315.528 249.401 315.325 250.03 315.116 250.656L314.642 250.497C314.433 251.12 314.219 251.74 313.998 252.357L314.469 252.525C314.247 253.147 314.018 253.766 313.783 254.382L313.316 254.203C313.082 254.817 312.841 255.428 312.595 256.036L313.058 256.224C312.81 256.835 312.556 257.443 312.295 258.048L311.836 257.851C311.576 258.455 311.31 259.055 311.038 259.652L311.493 259.86C311.22 260.46 310.941 261.057 310.655 261.651L310.205 261.434C309.92 262.026 309.629 262.615 309.333 263.201L309.779 263.427C309.48 264.015 309.176 264.601 308.866 265.182L308.425 264.947C308.116 265.526 307.801 266.102 307.48 266.674L307.917 266.919C307.594 267.495 307.266 268.067 306.931 268.636L306.5 268.382C306.168 268.948 305.829 269.51 305.486 270.069L305.911 270.331C305.565 270.893 305.213 271.451 304.855 272.006L304.435 271.735C304.079 272.286 303.718 272.834 303.351 273.377L303.766 273.657C303.397 274.204 303.022 274.747 302.642 275.287L302.233 274.998C301.855 275.535 301.471 276.067 301.082 276.595L301.484 276.892C301.093 277.423 300.696 277.95 300.294 278.473L299.898 278.168C299.498 278.689 299.092 279.205 298.681 279.717L299.071 280.03C298.659 280.544 298.24 281.054 297.817 281.56L297.434 281.239C297.012 281.743 296.586 282.242 296.155 282.736L296.531 283.065C296.098 283.562 295.659 284.055 295.215 284.543L294.845 284.207C294.404 284.692 293.957 285.173 293.506 285.65L293.869 285.994C293.415 286.472 292.956 286.947 292.492 287.416L292.137 287.065C291.676 287.532 291.21 287.994 290.739 288.452L291.088 288.81C290.615 289.27 290.137 289.725 289.654 290.175L289.313 289.809C288.833 290.257 288.349 290.7 287.86 291.138L288.193 291.51C287.702 291.95 287.206 292.385 286.705 292.815L286.38 292.436C285.882 292.863 285.379 293.286 284.872 293.703L285.19 294.089C284.681 294.508 284.168 294.923 283.65 295.332L283.341 294.939C282.826 295.346 282.306 295.748 281.783 296.144L282.085 296.543C281.559 296.941 281.029 297.333 280.495 297.721L280.201 297.316C279.67 297.701 279.135 298.081 278.595 298.455L278.881 298.866C278.339 299.242 277.793 299.613 277.243 299.978L276.966 299.562C276.42 299.925 275.87 300.282 275.316 300.634L275.584 301.056C275.027 301.41 274.466 301.758 273.901 302.1L273.642 301.673C273.081 302.013 272.517 302.347 271.949 302.676L272.2 303.109C271.629 303.439 271.054 303.764 270.476 304.082L270.234 303.645C269.66 303.961 269.082 304.272 268.501 304.577L268.733 305.02C268.15 305.326 267.562 305.627 266.972 305.922L266.749 305.474C266.161 305.767 265.571 306.054 264.977 306.335L265.191 306.787C264.595 307.069 263.997 307.345 263.394 307.615L263.19 307.158C262.591 307.427 261.989 307.689 261.383 307.946L261.578 308.406C260.972 308.663 260.363 308.914 259.75 309.158L259.564 308.694C258.955 308.937 258.343 309.175 257.728 309.406L257.904 309.874C257.287 310.105 256.667 310.331 256.044 310.55L255.878 310.079C255.26 310.296 254.639 310.508 254.015 310.713L254.171 311.188C253.545 311.394 252.915 311.594 252.283 311.788L252.136 311.31C251.511 311.502 250.882 311.687 250.251 311.866L250.387 312.347C249.753 312.527 249.115 312.701 248.475 312.868L248.349 312.385C247.716 312.55 247.08 312.71 246.441 312.862L246.558 313.349C245.917 313.502 245.274 313.649 244.628 313.79L244.522 313.301C243.881 313.441 243.238 313.574 242.592 313.701L242.689 314.191C242.043 314.318 241.395 314.438 240.745 314.552L240.659 314.06C240.012 314.173 239.363 314.28 238.712 314.38L238.788 314.874C238.139 314.974 237.487 315.067 236.833 315.154L236.767 314.658C236.118 314.745 235.466 314.825 234.812 314.898L234.867 315.395C234.213 315.468 233.557 315.535 232.898 315.595L232.853 315.097C232.201 315.157 231.548 315.21 230.892 315.256L230.928 315.755C230.269 315.802 229.608 315.842 228.946 315.875L228.921 315.376C228.269 315.409 227.615 315.435 226.96 315.455L226.975 315.955C226.316 315.975 225.656 315.988 224.994 315.995L224.989 315.495C224.66 315.498 224.33 315.5 224 315.5C223.67 315.5 223.34 315.498 223.011 315.495L223.006 315.995C222.344 315.988 221.684 315.975 221.025 315.955L221.027 315.904C221.618 315.679 222.208 315.451 222.797 315.22L222.431 314.289C221.812 314.532 221.192 314.772 220.569 315.008L220.735 315.446C220.182 315.427 219.63 315.404 219.079 315.376L219.042 316.11C218.984 316.131 218.927 316.152 218.869 316.174L218.697 315.704C218.074 315.931 217.45 316.155 216.823 316.375L216.989 316.846C216.36 317.067 215.73 317.284 215.098 317.497L214.938 317.023C214.308 317.235 213.676 317.444 213.043 317.649L213.197 318.125C212.562 318.33 211.925 318.531 211.286 318.729L211.139 318.252C210.505 318.448 209.87 318.64 209.234 318.829L209.376 319.308C208.737 319.497 208.097 319.682 207.455 319.864L207.319 319.383C206.68 319.564 206.038 319.741 205.395 319.914L205.525 320.397C204.881 320.571 204.235 320.741 203.587 320.907L203.463 320.422C202.821 320.587 202.177 320.747 201.533 320.904L201.651 321.39C201.004 321.547 200.355 321.701 199.705 321.85L199.593 321.363C198.945 321.512 198.296 321.658 197.645 321.799L197.751 322.288C197.099 322.429 196.444 322.567 195.789 322.701L195.689 322.211C195.04 322.344 194.39 322.472 193.738 322.597L193.832 323.088C193.178 323.213 192.523 323.334 191.867 323.452L191.779 322.96C191.124 323.077 190.469 323.19 189.812 323.299L189.893 323.792C189.234 323.901 188.574 324.007 187.912 324.108L187.836 323.614C187.182 323.714 186.526 323.811 185.869 323.903L185.939 324.399C185.28 324.491 184.62 324.58 183.959 324.665L183.895 324.169C183.236 324.254 182.575 324.334 181.914 324.411L181.971 324.908C181.308 324.985 180.643 325.058 179.977 325.127L179.925 324.629C179.266 324.697 178.606 324.762 177.945 324.822L177.991 325.32C177.328 325.38 176.665 325.437 176.001 325.489L175.961 324.991C175.299 325.043 174.636 325.091 173.971 325.136L174.004 325.634C173.338 325.679 172.67 325.719 172.001 325.756L171.974 325.256C171.312 325.292 170.649 325.324 169.985 325.353L170.006 325.852C169.343 325.88 168.678 325.904 168.012 325.924L167.997 325.425C167.333 325.445 166.668 325.461 166.003 325.473L166.012 325.973C165.344 325.985 164.675 325.993 164.005 325.997L164.002 325.497C163.668 325.499 163.334 325.5 163 325.5C162.666 325.5 162.332 325.499 161.998 325.497L161.995 325.997C161.325 325.993 160.657 325.985 159.989 325.973L159.998 325.473C159.332 325.461 158.667 325.445 158.003 325.425L157.988 325.924C157.322 325.904 156.658 325.88 155.994 325.852L156.015 325.353C155.351 325.325 154.688 325.292 154.026 325.256L153.999 325.756C153.33 325.719 152.663 325.679 151.996 325.634L152.029 325.136C151.365 325.091 150.701 325.043 150.039 324.991L149.999 325.489C149.335 325.437 148.672 325.38 148.01 325.32L148.055 324.822C147.394 324.762 146.734 324.697 146.075 324.629L146.024 325.127C145.358 325.058 144.693 324.985 144.029 324.908L144.087 324.411C143.425 324.334 142.764 324.254 142.105 324.169L142.041 324.665C141.38 324.58 140.72 324.491 140.061 324.399L140.131 323.903C139.474 323.811 138.818 323.714 138.164 323.614L138.088 324.108C137.426 324.007 136.766 323.901 136.107 323.792L136.189 323.299C135.532 323.19 134.876 323.077 134.221 322.96L134.133 323.452C133.477 323.335 132.822 323.213 132.168 323.088L132.262 322.597C131.611 322.472 130.96 322.344 130.312 322.211L130.211 322.701C129.556 322.567 128.902 322.429 128.249 322.288L128.355 321.799C127.704 321.658 127.055 321.512 126.407 321.363L126.295 321.851C125.645 321.701 124.996 321.548 124.35 321.39L124.468 320.904C123.823 320.748 123.179 320.587 122.537 320.422L122.413 320.907C121.766 320.741 121.119 320.571 120.475 320.397L120.605 319.914C119.962 319.741 119.321 319.564 118.681 319.383L118.545 319.864C117.903 319.683 117.263 319.497 116.624 319.308L116.766 318.829C116.13 318.64 115.495 318.448 114.862 318.252L114.714 318.729C114.075 318.531 113.438 318.33 112.803 318.125L112.957 317.649C112.324 317.444 111.692 317.235 111.062 317.023L110.902 317.497C110.27 317.284 109.64 317.067 109.011 316.846L109.177 316.375C108.55 316.155 107.926 315.931 107.303 315.704L107.131 316.174C106.504 315.945 105.878 315.712 105.254 315.475L105.431 315.008C104.808 314.772 104.188 314.532 103.569 314.289L103.386 314.754C102.765 314.51 102.147 314.263 101.53 314.011L101.718 313.548C101.103 313.298 100.49 313.043 99.879 312.786L99.6846 313.246C99.0691 312.987 98.4556 312.723 97.844 312.456L98.044 311.998C97.4341 311.732 96.8262 311.462 96.2202 311.188L96.0145 311.644C95.4067 311.37 94.8009 311.092 94.197 310.81L94.4083 310.357C93.8063 310.076 93.2064 309.792 92.6084 309.504L92.3916 309.955C91.7898 309.665 91.19 309.372 90.5923 309.075L90.8147 308.627C90.2188 308.331 89.625 308.032 89.0333 307.729L88.8054 308.174C88.2118 307.87 87.6204 307.562 87.0311 307.251L87.2645 306.809C86.6769 306.499 86.0915 306.185 85.5083 305.868L85.2695 306.308C84.6828 305.989 84.0983 305.667 83.516 305.341L83.7602 304.904C83.1797 304.579 82.6014 304.251 82.0253 303.919L81.7758 304.353C81.1979 304.02 80.6223 303.684 80.0489 303.344L80.3037 302.914C79.732 302.575 79.1626 302.233 78.5954 301.888L78.3353 302.315C77.7652 301.968 77.1973 301.617 76.6319 301.263L76.8972 300.839C76.3334 300.486 75.7719 300.13 75.2128 299.77L74.9424 300.191C74.3815 299.83 73.8231 299.466 73.267 299.099L73.5426 298.682C72.9881 298.315 72.4359 297.946 71.8862 297.573L71.6055 297.986C71.0532 297.612 70.5034 297.234 69.956 296.853L70.2417 296.442C69.696 296.062 69.1527 295.679 68.6119 295.292L68.3211 295.699C67.7787 295.311 67.2387 294.92 66.7012 294.526L66.9969 294.123C66.4609 293.73 65.9274 293.334 65.3964 292.934L65.0958 293.334C64.5626 292.932 64.032 292.528 63.504 292.121L63.8094 291.725C63.283 291.319 62.7591 290.909 62.2379 290.497L61.9276 290.889C61.4047 290.475 60.8844 290.058 60.3668 289.638L60.6818 289.25C60.1656 288.831 59.652 288.409 59.1411 287.984L58.8213 288.368C58.3085 287.942 57.7984 287.512 57.2909 287.079L57.6153 286.699C57.1094 286.267 56.6062 285.833 56.1057 285.395L55.7766 285.772C55.2746 285.333 54.7752 284.891 54.2786 284.446L54.6122 284.074C54.1171 283.63 53.6246 283.184 53.135 282.734L52.7968 283.102C52.3056 282.651 51.817 282.197 51.3313 281.74L51.6739 281.376C51.1897 280.921 50.7083 280.462 50.2297 280.001L49.8826 280.361C49.4026 279.898 48.9253 279.432 48.451 278.963L48.8024 278.608C48.3294 278.141 47.8593 277.67 47.3922 277.198L47.0364 277.549C46.5678 277.075 46.1021 276.597 45.6393 276.117L45.9992 275.77C45.5378 275.292 45.0793 274.81 44.6238 274.326L44.2596 274.669C43.8027 274.183 43.3486 273.694 42.8976 273.203L43.2659 272.865C42.8164 272.375 42.3698 271.883 41.9262 271.388L41.5538 271.721C41.1089 271.225 40.6671 270.725 40.2282 270.223L40.6047 269.894C40.1672 269.394 39.7327 268.891 39.3013 268.385L38.9209 268.709C38.4881 268.202 38.0584 267.691 37.6318 267.179L38.0162 266.859C37.5912 266.348 37.1692 265.834 36.7503 265.318L36.362 265.633C35.942 265.116 35.5251 264.595 35.1113 264.072L35.5034 263.762C35.0908 263.241 34.6814 262.717 34.2752 262.191L33.8793 262.496C33.4719 261.968 33.0675 261.437 32.6664 260.904L33.066 260.604C32.6665 260.073 32.2701 259.539 31.877 259.003L31.4738 259.299C31.0796 258.761 30.6887 258.221 30.3009 257.679L30.7077 257.388C30.3211 256.847 29.9378 256.304 29.5578 255.758L29.1475 256.044C28.7662 255.497 28.3883 254.947 28.0136 254.395L28.4274 254.114C28.0545 253.564 27.6848 253.012 27.3185 252.457L26.9013 252.733C26.5339 252.177 26.1698 251.618 25.8091 251.058L26.2297 250.787C25.87 250.228 25.5138 249.667 25.1609 249.103L24.7371 249.368C24.3831 248.803 24.0324 248.235 23.6852 247.665L24.1122 247.405C23.7668 246.837 23.4248 246.268 23.0861 245.696L22.6559 245.951C22.3163 245.378 21.9801 244.802 21.6473 244.224L22.0806 243.975C21.7489 243.399 21.4206 242.82 21.0957 242.24L20.6594 242.484C20.3335 241.902 20.0112 241.317 19.6923 240.731L20.1316 240.492C19.8145 239.909 19.501 239.323 19.1909 238.736L18.7487 238.969C18.4377 238.38 18.1303 237.788 17.8263 237.195L18.2713 236.967C17.9683 236.375 17.6688 235.781 17.3729 235.185L16.9251 235.408C16.6282 234.81 16.335 234.21 16.0453 233.609L16.4958 233.392C16.208 232.794 15.9237 232.194 15.643 231.592L15.1899 231.803C14.9083 231.199 14.6304 230.593 14.356 229.986L14.8117 229.78C14.5382 229.174 14.2684 228.566 14.0021 227.956L13.5439 228.156C13.2769 227.545 13.0135 226.931 12.7538 226.316L13.2145 226.121C12.9566 225.51 12.7023 224.897 12.4517 224.282L11.9887 224.47C11.7373 223.854 11.4896 223.235 11.2456 222.614L11.7109 222.431C11.4677 221.812 11.2281 221.192 10.9923 220.569L10.5247 220.747C10.2882 220.122 10.0555 219.497 9.82646 218.869L10.2962 218.697C10.0689 218.074 9.84529 217.45 9.62543 216.823L9.15363 216.989C8.93309 216.36 8.71628 215.73 8.50325 215.098L8.97706 214.938C8.76468 214.308 8.55607 213.676 8.35124 213.043L7.87549 213.197C7.67013 212.562 7.46857 211.925 7.27082 211.286L7.74844 211.139C7.55231 210.505 7.35995 209.87 7.17138 209.234L6.69198 209.376C6.50282 208.737 6.31747 208.097 6.13596 207.456L6.61709 207.319C6.43613 206.68 6.259 206.038 6.08571 205.395L5.60294 205.525C5.4292 204.881 5.25932 204.235 5.09332 203.587L5.57766 203.463C5.41317 202.821 5.25249 202.177 5.09567 201.533L4.60983 201.651C4.45251 201.004 4.29906 200.355 4.1495 199.705L4.63676 199.593C4.48765 198.945 4.34242 198.296 4.20109 197.645L3.71248 197.751C3.57074 197.099 3.43292 196.444 3.29903 195.789L3.78892 195.689C3.6564 195.04 3.52775 194.39 3.40299 193.738L2.91191 193.832C2.78677 193.178 2.66553 192.523 2.54822 191.867L3.04042 191.779C2.92347 191.124 2.81044 190.469 2.70135 189.812L2.2081 189.893C2.09867 189.234 1.9932 188.574 1.89171 187.912L2.38593 187.836C2.28557 187.182 2.18911 186.526 2.09657 185.869L1.60146 185.939C1.50868 185.28 1.41983 184.62 1.33495 183.959L1.83088 183.895C1.74626 183.236 1.66559 182.575 1.58889 181.914L1.09222 181.971C1.01528 181.308 0.942339 180.643 0.873405 179.977L1.37075 179.925C1.30257 179.266 1.23834 178.606 1.17806 177.945L0.680124 177.991C0.619751 177.328 0.563337 176.665 0.510907 176.001L1.00936 175.961C0.957088 175.299 0.908789 174.636 0.864486 173.971L0.365593 174.004C0.321155 173.338 0.280724 172.67 0.244325 172.001L0.743586 171.974C0.707564 171.312 0.675503 170.649 0.647425 169.985L0.147871 170.006C0.1198 169.343 0.0956978 168.678 0.0755889 168.012L0.575361 167.997C0.555313 167.333 0.539246 166.668 0.527182 166.003L0.0272642 166.012C0.0151641 165.344 0.00708003 164.675 0.00303512 164.005L0.503026 164.002C0.50101 163.668 0.5 163.334 0.5 163C0.5 162.666 0.501009 162.332 0.503024 161.998L0.00303286 161.995C0.00707628 161.325 0.0151589 160.657 0.0272575 159.989L0.527176 159.998C0.539238 159.332 0.555304 158.667 0.575351 158.003L0.0755788 157.988C0.0956865 157.322 0.119787 156.658 0.147858 155.994L0.647411 156.015C0.675488 155.351 0.707548 154.688 0.743568 154.026L0.244307 153.999C0.280705 153.33 0.321135 152.663 0.365573 151.996L0.864465 152.029C0.908767 151.365 0.957065 150.701 1.00933 150.039L0.510883 149.999C0.563312 149.335 0.619724 148.672 0.680097 148.01L1.17803 148.055C1.23831 147.394 1.30255 146.734 1.37072 146.075L0.873374 146.024C0.942307 145.358 1.01525 144.693 1.09218 144.029L1.58886 144.087C1.66555 143.425 1.74623 142.764 1.83085 142.105L1.33492 142.041C1.4198 141.38 1.50864 140.72 1.60142 140.061L2.09654 140.131C2.18907 139.474 2.28553 138.818 2.38589 138.164L1.89167 138.088C1.99316 137.426 2.09863 136.766 2.20806 136.107L2.70131 136.189C2.81039 135.532 2.92342 134.876 3.04037 134.221L2.54817 134.134C2.66548 133.477 2.78672 132.822 2.91186 132.168L3.40294 132.262C3.5277 131.611 3.65635 130.96 3.78887 130.312L3.29898 130.211C3.43287 129.556 3.57069 128.902 3.71243 128.249L4.20104 128.355C4.34237 127.704 4.4876 127.055 4.63671 126.407L4.14944 126.295C4.29901 125.645 4.45246 124.996 4.60977 124.35L5.09561 124.468C5.25244 123.823 5.41311 123.179 5.57761 122.537L5.09326 122.413C5.25926 121.766 5.42914 121.119 5.60288 120.475L6.08565 120.605C6.25894 119.962 6.43607 119.321 6.61703 118.681L6.1359 118.545C6.31742 117.903 6.50276 117.263 6.69192 116.624L7.17132 116.766C7.35989 116.13 7.55225 115.495 7.74838 114.862L7.27077 114.714C7.46851 114.075 7.67007 113.438 7.87543 112.803L8.35118 112.957C8.55601 112.324 8.76463 111.692 8.977 111.062L8.5032 110.902C8.71623 110.27 8.93303 109.64 9.15357 109.011L9.62537 109.177C9.84523 108.55 10.0688 107.926 10.2961 107.303L9.82641 107.131C10.0554 106.504 10.2882 105.878 10.5247 105.254L10.9922 105.431C11.2281 104.808 11.4676 104.188 11.7109 103.569L11.2456 103.386C11.4896 102.765 11.7373 102.147 11.9887 101.53L12.4517 101.718C12.7023 101.103 12.9566 100.49 13.2144 99.879L12.7538 99.6846C13.0135 99.0691 13.2768 98.4556 13.5438 97.844L14.0021 98.044C14.2683 97.4341 14.5382 96.8262 14.8117 96.2202L14.356 96.0146C14.6303 95.4067 14.9083 94.8009 15.1898 94.197L15.643 94.4083C15.9237 93.8063 16.208 93.2064 16.4958 92.6084L16.0452 92.3916C16.3349 91.7898 16.6282 91.19 16.925 90.5923L17.3728 90.8147C17.6688 90.2188 17.9683 89.625 18.2713 89.0333L17.8263 88.8054C18.1302 88.2118 18.4377 87.6204 18.7487 87.0311L19.1909 87.2645C19.501 86.6769 19.8145 86.0915 20.1315 85.5083L19.6922 85.2695C20.0111 84.6828 20.3335 84.0983 20.6594 83.516L21.0957 83.7602C21.4206 83.1797 21.7489 82.6014 22.0806 82.0253L21.6473 81.7758C21.9801 81.1979 22.3163 80.6223 22.6559 80.0489L23.0861 80.3037C23.4248 79.732 23.7668 79.1626 24.1122 78.5954L23.6852 78.3353C24.0324 77.7652 24.383 77.1974 24.737 76.6319L25.1609 76.8972C25.5138 76.3334 25.87 75.7719 26.2296 75.2128L25.8091 74.9424C26.1698 74.3815 26.5339 73.8231 26.9013 73.267L27.3185 73.5426C27.6848 72.9881 28.0545 72.4359 28.4274 71.8862L28.0136 71.6055C28.3883 71.0532 28.7662 70.5034 29.1475 69.956L29.5578 70.2417C29.9378 69.696 30.3211 69.1527 30.7077 68.6119L30.3009 68.3211C30.6887 67.7787 31.0796 67.2387 31.4738 66.7012L31.877 66.9969C32.2701 66.4609 32.6665 65.9274 33.066 65.3964L32.6664 65.0958C33.0676 64.5626 33.4719 64.032 33.8794 63.504L34.2752 63.8094C34.6815 63.283 35.0909 62.7591 35.5034 62.2379L35.1113 61.9276C35.5251 61.4047 35.942 60.8844 36.3621 60.3668L36.7503 60.6818C37.1692 60.1656 37.5912 59.652 38.0163 59.1411L37.6319 58.8213C38.0585 58.3085 38.4882 57.7984 38.9209 57.2909L39.3014 57.6153C39.7328 57.1094 40.1673 56.6062 40.6048 56.1057L40.2283 55.7766C40.6671 55.2746 41.109 54.7752 41.5539 54.2786L41.9263 54.6122C42.3699 54.1171 42.8165 53.6246 43.266 53.135L42.8977 52.7968C43.3487 52.3055 43.8027 51.817 44.2597 51.3313L44.6238 51.6739C45.0794 51.1897 45.5379 50.7083 45.9993 50.2297L45.6394 49.8827C46.1022 49.4026 46.5679 48.9253 47.0365 48.451L47.3922 48.8024C47.8594 48.3294 48.3295 47.8593 48.8024 47.3922L48.4511 47.0364C48.9254 46.5678 49.4027 46.1021 49.8827 45.6393L50.2298 45.9992C50.7084 45.5378 51.1898 45.0793 51.674 44.6238L51.3314 44.2596C51.8171 43.8027 52.3056 43.3486 52.7969 42.8976L53.1351 43.2659C53.6247 42.8164 54.1171 42.3698 54.6123 41.9262L54.2787 41.5538C54.7753 41.1089 55.2746 40.6671 55.7767 40.2282L56.1057 40.6047C56.6063 40.1672 57.1095 39.7327 57.6154 39.3013L57.291 38.9209C57.7984 38.4881 58.3086 38.0584 58.8214 37.6318L59.1411 38.0162C59.6521 37.5912 60.1657 37.1692 60.6819 36.7503L60.3668 36.362C60.8845 35.942 61.4048 35.5251 61.9276 35.1113L62.2379 35.5034C62.7592 35.0908 63.283 34.6814 63.8095 34.2752L63.504 33.8793C64.032 33.4719 64.5626 33.0675 65.0958 32.6664L65.3964 33.066C65.9274 32.6665 66.4609 32.2701 66.9969 31.877L66.7012 31.4738C67.2387 31.0796 67.7787 30.6886 68.3212 30.3009L68.6119 30.7077C69.1527 30.3211 69.696 29.9378 70.2417 29.5578L69.956 29.1475C70.5034 28.7662 71.0532 28.3883 71.6055 28.0136L71.8862 28.4274C72.4359 28.0545 72.9881 27.6848 73.5426 27.3185L73.267 26.9013C73.8231 26.5339 74.3815 26.1698 74.9424 25.8091L75.2128 26.2297C75.7719 25.87 76.3334 25.5138 76.8971 25.1609L76.6318 24.7371C77.1973 24.3831 77.7652 24.0324 78.3353 23.6852L78.5954 24.1122C79.1626 23.7668 79.732 23.4248 80.3037 23.0861L80.0489 22.6559C80.6223 22.3163 81.1979 21.9801 81.7758 21.6473L82.0253 22.0806C82.6014 21.7489 83.1797 21.4206 83.7602 21.0957L83.516 20.6594C84.0983 20.3335 84.6828 20.0112 85.2695 19.6923L85.5082 20.1316C86.0915 19.8145 86.6769 19.501 87.2644 19.1909L87.031 18.7487C87.6203 18.4377 88.2118 18.1303 88.8053 17.8263L89.0332 18.2713C89.6249 17.9683 90.2188 17.6688 90.8147 17.3729L90.5923 16.9251C91.1899 16.6282 91.7897 16.335 92.3915 16.0453L92.6083 16.4958C93.2063 16.208 93.8063 15.9237 94.4082 15.643L94.1969 15.1899C94.8008 14.9083 95.4066 14.6304 96.0145 14.356L96.2201 14.8117C96.8261 14.5382 97.434 14.2684 98.0439 14.0021L97.8439 13.5439C98.4555 13.2769 99.069 13.0135 99.6845 12.7538L99.8789 13.2145C100.49 12.9566 101.103 12.7023 101.718 12.4517L101.53 11.9887C102.146 11.7373 102.765 11.4896 103.386 11.2456L103.569 11.7109C104.188 11.4677 104.808 11.2281 105.431 10.9923L105.253 10.5247C105.878 10.2882 106.503 10.0555 107.131 9.82646L107.303 10.2962C107.926 10.0689 108.55 9.84529 109.177 9.62543L109.011 9.15363C109.64 8.93309 110.27 8.71629 110.902 8.50325L111.062 8.97706C111.692 8.76468 112.324 8.55607 112.957 8.35124L112.803 7.87549C113.438 7.67013 114.075 7.46857 114.714 7.27082L114.861 7.74844C115.495 7.55231 116.13 7.35995 116.766 7.17138L116.624 6.69197C117.263 6.50282 117.903 6.31747 118.544 6.13596L118.681 6.61709C119.32 6.43613 119.962 6.259 120.605 6.08571L120.475 5.60294C121.119 5.4292 121.765 5.25932 122.413 5.09332L122.537 5.57766C123.179 5.41317 123.823 5.25249 124.467 5.09567L124.349 4.60983C124.996 4.45251 125.645 4.29906 126.295 4.1495L126.407 4.63676C127.055 4.48765 127.704 4.34242 128.355 4.20109L128.249 3.71248C128.901 3.57074 129.556 3.43292 130.211 3.29903L130.311 3.78892C130.96 3.6564 131.61 3.52775 132.262 3.40299L132.168 2.91191C132.822 2.78677 133.477 2.66553 134.133 2.54822L134.221 3.04042C134.876 2.92347 135.531 2.81044 136.188 2.70135L136.107 2.2081C136.766 2.09867 137.426 1.9932 138.088 1.89171L138.164 2.38593C138.818 2.28557 139.474 2.18911 140.131 2.09657L140.061 1.60146C140.72 1.50868 141.38 1.41983 142.041 1.33495L142.105 1.83088C142.764 1.74626 143.425 1.66559 144.086 1.58889L144.029 1.09222C144.692 1.01528 145.357 0.942339 146.023 0.873405L146.075 1.37075C146.734 1.30257 147.394 1.23834 148.055 1.17806L148.009 0.680124C148.672 0.619751 149.335 0.563337 149.999 0.510907L150.039 1.00936C150.701 0.957088 151.364 0.908789 152.029 0.864486L151.996 0.365593C152.662 0.321155 153.33 0.280724 153.999 0.244325L154.026 0.743586C154.688 0.707564 155.351 0.675503 156.015 0.647425L155.994 0.147871C156.657 0.1198 157.322 0.0956978 157.988 0.0755889L158.003 0.575361C158.667 0.555313 159.332 0.539246 159.997 0.527182L159.988 0.0272642C160.656 0.0151641 161.325 0.00708003 161.995 0.00303512L161.998 0.503026C162.332 0.50101 162.666 0.5 163 0.5C163.334 0.5 163.668 0.501009 164.002 0.503024L164.005 0.00303286C164.675 0.00707628 165.343 0.0151589 166.011 0.0272575L166.002 0.527176C166.668 0.539238 167.333 0.555304 167.997 0.575351L168.012 0.0755788C168.678 0.0956865 169.342 0.119787 170.006 0.147858L169.985 0.647411C170.649 0.675488 171.312 0.707548 171.974 0.743568L172.001 0.244307C172.67 0.280705 173.337 0.321135 174.004 0.365573L173.971 0.864465C174.635 0.908767 175.299 0.957065 175.961 1.00933L176.001 0.510883C176.665 0.563312 177.328 0.619724 177.99 0.680097L177.945 1.17803C178.606 1.23831 179.266 1.30255 179.925 1.37072L179.976 0.873374C180.642 0.942307 181.307 1.01525 181.971 1.09218L181.913 1.58886C182.575 1.66555 183.236 1.74623 183.895 1.83085L183.959 1.33492C184.62 1.4198 185.28 1.50864 185.939 1.60142L185.869 2.09654C186.526 2.18907 187.182 2.28553 187.836 2.38589L187.912 1.89167C188.574 1.99316 189.234 2.09863 189.893 2.20806L189.811 2.70131C190.468 2.81039 191.124 2.92342 191.779 3.04037L191.866 2.54817C192.523 2.66548 193.178 2.78672 193.832 2.91186L193.738 3.40294C194.389 3.5277 195.04 3.65635 195.688 3.78887L195.789 3.29898C196.444 3.43287 197.098 3.57069 197.751 3.71243L197.645 4.20104C198.296 4.34237 198.945 4.4876 199.593 4.63671L199.705 4.14944C200.355 4.29901 201.004 4.45246 201.65 4.60977L201.532 5.09561C202.177 5.25244 202.821 5.41311 203.463 5.57761L203.587 5.09326C204.234 5.25926 204.881 5.42914 205.525 5.60288L205.395 6.08565C206.038 6.25894 206.679 6.43607 207.319 6.61703L207.455 6.1359C208.097 6.31742 208.737 6.50276 209.376 6.69192L209.234 7.17132C209.87 7.35989 210.505 7.55225 211.138 7.74838L211.286 7.27077C211.925 7.46851 212.562 7.67007 213.197 7.87543L213.043 8.35118C213.676 8.55601 214.308 8.76463 214.938 8.977L215.098 8.5032C215.73 8.71623 216.36 8.93303 216.989 9.15357L216.823 9.62537C217.45 9.84523 218.074 10.0688 218.697 10.2961L218.869 9.82641C219.496 10.0554 220.122 10.2882 220.746 10.5247L220.569 10.9922C221.192 11.2281 221.812 11.4676 222.431 11.7109L222.614 11.2456C223.235 11.4896 223.853 11.7373 224.47 11.9887L224.282 12.4517C224.897 12.7023 225.51 12.9566 226.121 13.2144L226.315 12.7538C226.931 13.0135 227.544 13.2768 228.156 13.5438L227.956 14.0021C228.566 14.2683 229.174 14.5382 229.78 14.8117L229.985 14.356C230.593 14.6303 231.199 14.9083 231.803 15.1898L231.592 15.643C232.194 15.9237 232.794 16.208 233.392 16.4958L233.608 16.0452C234.21 16.3349 234.81 16.6282 235.408 16.925L235.185 17.3728C235.781 17.6688 236.375 17.9683 236.967 18.2713L237.195 17.8263C237.788 18.1302 238.38 18.4377 238.969 18.7487L238.736 19.1909C239.323 19.501 239.908 19.8145 240.492 20.1315L240.73 19.6922C241.317 20.0111 241.902 20.3335 242.484 20.6594L242.24 21.0957C242.82 21.4206 243.399 21.7489 243.975 22.0806L244.224 21.6473C244.802 21.9801 245.378 22.3163 245.951 22.6559L245.696 23.0861C246.268 23.4248 246.837 23.7668 247.405 24.1122L247.665 23.6852C248.235 24.0324 248.803 24.383 249.368 24.737L249.103 25.1609C249.667 25.5138 250.228 25.87 250.787 26.2296L251.058 25.8091C251.618 26.1698 252.177 26.5339 252.733 26.9013L252.457 27.3185C253.012 27.6848 253.564 28.0545 254.114 28.4274L254.395 28.0136C254.947 28.3883 255.497 28.7662 256.044 29.1475L255.758 29.5578C256.304 29.9378 256.847 30.3211 257.388 30.7077L257.679 30.3009C258.221 30.6887 258.761 31.0796 259.299 31.4738L259.003 31.877C259.539 32.2701 260.073 32.6665 260.604 33.066L260.904 32.6664C261.437 33.0676 261.968 33.4719 262.496 33.8794L262.191 34.2752C262.717 34.6815 263.241 35.0909 263.762 35.5034L264.072 35.1113C264.595 35.5251 265.116 35.942 265.633 36.3621L265.318 36.7503C265.834 37.1692 266.348 37.5912 266.859 38.0163L267.179 37.6319C267.691 38.0585 268.202 38.4882 268.709 38.9209L268.385 39.3014C268.891 39.7328 269.394 40.1673 269.894 40.6048L270.223 40.2283C270.725 40.6671 271.225 41.109 271.721 41.5539L271.388 41.9263C271.883 42.3699 272.375 42.8165 272.865 43.266L273.203 42.8977C273.694 43.3487 274.183 43.8027 274.669 44.2597L274.326 44.6238C274.81 45.0794 275.292 45.5379 275.77 45.9993L276.117 45.6394C276.597 46.1022 277.075 46.5679 277.549 47.0365L277.198 47.3922C277.671 47.8594 278.141 48.3295 278.608 48.8024L278.964 48.451C279.432 48.9254 279.898 49.4027 280.361 49.8827L280.001 50.2298C280.462 50.7084 280.921 51.1898 281.376 51.674L281.74 51.3314C282.197 51.8171 282.651 52.3056 283.102 52.7969L282.734 53.1351C283.184 53.6247 283.63 54.1171 284.074 54.6123L284.446 54.2787C284.891 54.7753 285.333 55.2746 285.772 55.7767L285.395 56.1057C285.833 56.6063 286.267 57.1095 286.699 57.6154L287.079 57.291C287.512 57.7984 287.942 58.3086 288.368 58.8214L287.984 59.1411C288.409 59.6521 288.831 60.1657 289.25 60.6819L289.638 60.3668C290.058 60.8845 290.475 61.4048 290.889 61.9276L290.497 62.2379C290.909 62.7592 291.319 63.283 291.725 63.8095L292.121 63.504C292.528 64.032 292.932 64.5626 293.334 65.0958L292.934 65.3964C293.334 65.9274 293.73 66.4609 294.123 66.9969L294.526 66.7012C294.92 67.2387 295.311 67.7787 295.699 68.3212L295.292 68.6119C295.679 69.1527 296.062 69.696 296.442 70.2417L296.853 69.956C297.234 70.5034 297.612 71.0532 297.986 71.6055L297.573 71.8862C297.946 72.4359 298.315 72.9881 298.682 73.5426L299.099 73.267C299.466 73.8231 299.83 74.3815 300.191 74.9424L299.77 75.2128C300.13 75.7719 300.486 76.3334 300.839 76.8971L301.263 76.6318C301.617 77.1973 301.968 77.7652 302.315 78.3353L301.888 78.5954C302.233 79.1626 302.575 79.732 302.914 80.3037L303.344 80.0489C303.684 80.6223 304.02 81.1979 304.353 81.7758L303.919 82.0253C304.251 82.6014 304.579 83.1797 304.904 83.7602L305.341 83.516C305.666 84.0983 305.989 84.6828 306.308 85.2695L305.868 85.5082C306.185 86.0915 306.499 86.6769 306.809 87.2644L307.251 87.031C307.562 87.6203 307.87 88.2118 308.174 88.8053L307.729 89.0332C308.032 89.6249 308.331 90.2188 308.627 90.8147L309.075 90.5923C309.372 91.1899 309.665 91.7897 309.955 92.3915L309.504 92.6083C309.792 93.2063 310.076 93.8063 310.357 94.4082L310.81 94.1969C311.092 94.8008 311.37 95.4066 311.644 96.0145L311.188 96.2201C311.462 96.8261 311.732 97.434 311.998 98.0439L312.456 97.8439C312.723 98.4555 312.987 99.069 313.246 99.6845L312.785 99.8789C313.043 100.49 313.298 101.103 313.548 101.718L314.011 101.53C314.263 102.146 314.51 102.765 314.754 103.386L314.289 103.569C314.532 104.188 314.772 104.808 315.008 105.431L315.475 105.253C315.712 105.878 315.945 106.503 316.174 107.131L315.704 107.303C315.931 107.926 316.155 108.55 316.375 109.177L316.846 109.011C317.067 109.64 317.284 110.27 317.497 110.902L317.023 111.062C317.235 111.692 317.444 112.324 317.649 112.957L318.125 112.803C318.33 113.438 318.531 114.075 318.729 114.714L318.252 114.861C318.448 115.495 318.64 116.13 318.829 116.766L319.308 116.624C319.497 117.263 319.683 117.903 319.864 118.544L319.383 118.681C319.564 119.32 319.741 119.962 319.914 120.605L320.397 120.475C320.571 121.119 320.741 121.765 320.907 122.413L320.422 122.537C320.587 123.179 320.747 123.823 320.904 124.467L321.39 124.349C321.547 124.996 321.701 125.645 321.85 126.295L321.363 126.407C321.512 127.055 321.658 127.704 321.799 128.355L322.288 128.249C322.429 128.901 322.567 129.556 322.701 130.211L322.211 130.311C322.344 130.96 322.472 131.61 322.597 132.262L323.088 132.168C323.213 132.822 323.334 133.477 323.452 134.133L322.96 134.221C323.077 134.876 323.19 135.531 323.299 136.188L323.792 136.107C323.901 136.766 324.007 137.426 324.108 138.088L323.614 138.164C323.714 138.818 323.811 139.474 323.903 140.131L324.399 140.061C324.491 140.72 324.58 141.38 324.665 142.041L324.169 142.105C324.254 142.764 324.334 143.425 324.411 144.086L324.908 144.029C324.985 144.692 325.058 145.357 325.127 146.023L324.629 146.075C324.697 146.734 324.762 147.394 324.822 148.055L325.32 148.009C325.38 148.672 325.437 149.335 325.489 149.999L324.991 150.039C325.043 150.701 325.091 151.364 325.136 152.029L325.634 151.996C325.679 152.662 325.719 153.33 325.756 153.999L325.256 154.026C325.292 154.688 325.324 155.351 325.353 156.015L325.852 155.994C325.88 156.657 325.904 157.322 325.924 157.988L325.425 158.003C325.445 158.667 325.461 159.332 325.473 159.997L325.973 159.988ZM224.659 314.474C225.278 314.222 225.895 313.966 226.51 313.707L226.121 312.785C225.51 313.043 224.897 313.298 224.282 313.548L224.659 314.474ZM228.356 312.914C228.97 312.646 229.582 312.375 230.191 312.1L229.78 311.188C229.174 311.462 228.566 311.732 227.956 311.998L228.356 312.914ZM232.014 311.263C232.62 310.981 233.224 310.695 233.825 310.405L233.392 309.504C232.794 309.792 232.194 310.076 231.592 310.357L232.014 311.263ZM235.63 309.523C236.23 309.225 236.827 308.924 237.423 308.619L236.967 307.729C236.375 308.032 235.781 308.331 235.185 308.627L235.63 309.523ZM239.202 307.693C239.793 307.382 240.382 307.066 240.969 306.747L240.492 305.868C239.909 306.185 239.323 306.499 238.736 306.809L239.202 307.693ZM242.728 305.777C243.312 305.45 243.894 305.12 244.474 304.786L243.975 303.919C243.399 304.251 242.82 304.579 242.24 304.904L242.728 305.777ZM246.206 303.774C246.781 303.434 247.354 303.089 247.925 302.742L247.405 301.888C246.837 302.233 246.268 302.575 245.696 302.914L246.206 303.774ZM249.633 301.687C250.201 301.332 250.766 300.973 251.328 300.611L250.787 299.77C250.228 300.13 249.667 300.486 249.103 300.839L249.633 301.687ZM253.009 299.516C253.567 299.147 254.122 298.775 254.675 298.4L254.114 297.573C253.564 297.946 253.012 298.315 252.457 298.682L253.009 299.516ZM256.33 297.263C256.879 296.88 257.425 296.495 257.97 296.106L257.388 295.292C256.847 295.679 256.304 296.062 255.758 296.442L256.33 297.263ZM259.595 294.929C260.134 294.534 260.671 294.135 261.205 293.733L260.604 292.934C260.073 293.334 259.539 293.73 259.003 294.123L259.595 294.929ZM262.801 292.516C263.331 292.108 263.858 291.696 264.383 291.281L263.762 290.497C263.241 290.909 262.717 291.319 262.191 291.725L262.801 292.516ZM265.948 290.026C266.468 289.605 266.984 289.18 267.498 288.753L266.859 287.984C266.348 288.409 265.834 288.831 265.318 289.25L265.948 290.026ZM269.033 287.46C269.542 287.026 270.049 286.588 270.552 286.148L269.894 285.395C269.394 285.833 268.891 286.267 268.385 286.699L269.033 287.46ZM272.055 284.819C272.553 284.372 273.049 283.923 273.541 283.471L272.865 282.734C272.375 283.184 271.883 283.63 271.388 284.074L272.055 284.819ZM275.011 282.105C275.498 281.646 275.983 281.185 276.464 280.721L275.77 280.001C275.292 280.462 274.81 280.921 274.326 281.376L275.011 282.105ZM277.9 279.319C278.376 278.849 278.849 278.376 279.319 277.9L278.608 277.198C278.141 277.671 277.67 278.141 277.198 278.608L277.9 279.319ZM280.721 276.464C281.185 275.983 281.646 275.498 282.104 275.011L281.376 274.326C280.921 274.81 280.462 275.292 280.001 275.77L280.721 276.464ZM283.471 273.541C283.923 273.049 284.372 272.553 284.819 272.055L284.074 271.388C283.63 271.883 283.184 272.375 282.734 272.865L283.471 273.541ZM286.148 270.552C286.588 270.049 287.025 269.543 287.46 269.034L286.699 268.385C286.267 268.891 285.833 269.394 285.395 269.894L286.148 270.552ZM288.753 267.498C289.18 266.984 289.605 266.468 290.026 265.948L289.25 265.318C288.831 265.834 288.409 266.348 287.984 266.859L288.753 267.498ZM291.281 264.383C291.696 263.858 292.108 263.331 292.516 262.802L291.725 262.191C291.319 262.717 290.909 263.241 290.497 263.762L291.281 264.383ZM293.733 261.205C294.135 260.671 294.534 260.134 294.929 259.595L294.123 259.003C293.73 259.539 293.334 260.073 292.934 260.604L293.733 261.205ZM296.106 257.97C296.495 257.425 296.88 256.879 297.263 256.33L296.442 255.758C296.062 256.304 295.679 256.847 295.292 257.388L296.106 257.97ZM298.4 254.675C298.775 254.122 299.147 253.567 299.516 253.009L298.682 252.457C298.315 253.012 297.946 253.564 297.573 254.114L298.4 254.675ZM300.611 251.328C300.973 250.766 301.332 250.201 301.687 249.633L300.839 249.103C300.486 249.667 300.13 250.228 299.77 250.787L300.611 251.328ZM302.742 247.925C303.089 247.354 303.434 246.781 303.774 246.206L302.914 245.696C302.575 246.268 302.233 246.837 301.888 247.405L302.742 247.925ZM304.786 244.474C305.12 243.894 305.45 243.312 305.777 242.728L304.904 242.24C304.579 242.82 304.251 243.399 303.919 243.975L304.786 244.474ZM306.747 240.969C307.066 240.382 307.382 239.793 307.693 239.202L306.809 238.736C306.499 239.323 306.185 239.908 305.868 240.492L306.747 240.969ZM308.619 237.423C308.924 236.827 309.225 236.23 309.523 235.63L308.627 235.185C308.331 235.781 308.032 236.375 307.729 236.967L308.619 237.423ZM310.405 233.825C310.695 233.224 310.981 232.62 311.263 232.014L310.357 231.592C310.076 232.194 309.792 232.794 309.504 233.392L310.405 233.825ZM312.1 230.191C312.375 229.581 312.647 228.97 312.914 228.356L311.998 227.956C311.732 228.566 311.462 229.174 311.188 229.78L312.1 230.191ZM313.707 226.51C313.966 225.895 314.222 225.278 314.474 224.659L313.548 224.282C313.298 224.897 313.043 225.51 312.786 226.121L313.707 226.51ZM315.22 222.797C315.465 222.174 315.706 221.55 315.943 220.924L315.008 220.569C314.772 221.192 314.532 221.812 314.289 222.431L315.22 222.797ZM316.643 219.04C316.872 218.413 317.097 217.785 317.318 217.154L316.375 216.823C316.155 217.45 315.931 218.074 315.704 218.697L316.643 219.04ZM317.971 215.257C318.184 214.624 318.394 213.988 318.6 213.35L317.649 213.043C317.444 213.676 317.235 214.308 317.023 214.938L317.971 215.257ZM319.35 205.636C319.247 204.979 319.138 204.323 319.022 203.67L318.037 203.845C318.152 204.491 318.261 205.14 318.362 205.791L319.35 205.636ZM318.654 201.717C318.524 201.066 318.387 200.416 318.244 199.769L317.268 199.985C317.409 200.625 317.544 201.268 317.673 201.913L318.654 201.717ZM317.794 197.831C317.637 197.186 317.473 196.544 317.303 195.904L316.337 196.161C316.505 196.794 316.667 197.429 316.822 198.067L317.794 197.831ZM316.772 193.985C316.588 193.348 316.398 192.713 316.202 192.082L315.247 192.379C315.441 193.004 315.629 193.631 315.811 194.262L316.772 193.985ZM315.59 190.186C315.38 189.556 315.163 188.93 314.94 188.307L313.998 188.643C314.219 189.26 314.433 189.88 314.642 190.503L315.59 190.186ZM314.25 186.44C314.013 185.82 313.77 185.202 313.521 184.588L312.595 184.964C312.841 185.572 313.082 186.183 313.316 186.797L314.25 186.44ZM312.754 182.754C312.492 182.144 312.223 181.537 311.948 180.933L311.038 181.348C311.31 181.945 311.576 182.545 311.836 183.149L312.754 182.754ZM311.106 179.133C310.818 178.534 310.524 177.939 310.225 177.347L309.333 177.799C309.629 178.385 309.92 178.974 310.205 179.566L311.106 179.133ZM309.307 175.583C308.995 174.997 308.677 174.415 308.353 173.837L307.48 174.325C307.801 174.898 308.116 175.474 308.425 176.053L309.307 175.583ZM307.362 172.111C307.026 171.539 306.685 170.971 306.337 170.407L305.486 170.931C305.829 171.49 306.168 172.052 306.5 172.618L307.362 172.111ZM305.276 168.723C304.916 168.166 304.551 167.613 304.18 167.063L303.351 167.623C303.718 168.166 304.079 168.714 304.435 169.265L305.276 168.723ZM303.05 165.425C302.668 164.883 302.28 164.345 301.887 163.812L301.082 164.405C301.471 164.933 301.855 165.465 302.233 166.002L303.05 165.425ZM300.69 162.222C300.286 161.696 299.876 161.175 299.461 160.657L298.681 161.283C299.092 161.795 299.498 162.311 299.898 162.832L300.69 162.222ZM298.201 159.119C297.775 158.61 297.344 158.106 296.908 157.606L296.155 158.264C296.586 158.758 297.012 159.257 297.434 159.761L298.201 159.119ZM295.585 156.121C295.139 155.63 294.688 155.144 294.231 154.663L293.506 155.35C293.957 155.827 294.404 156.308 294.845 156.793L295.585 156.121ZM292.848 153.233C292.382 152.761 291.912 152.294 291.436 151.831L290.739 152.548C291.21 153.006 291.676 153.468 292.137 153.935L292.848 153.233ZM289.995 150.459C289.511 150.007 289.021 149.56 288.527 149.117L287.86 149.862C288.349 150.3 288.833 150.743 289.313 151.191L289.995 150.459ZM287.031 147.806C286.528 147.374 286.02 146.947 285.508 146.525L284.872 147.297C285.379 147.714 285.882 148.137 286.38 148.564L287.031 147.806ZM283.96 145.276C283.44 144.865 282.915 144.459 282.386 144.059L281.783 144.856C282.306 145.252 282.826 145.654 283.341 146.061L283.96 145.276ZM280.788 142.874C280.252 142.485 279.711 142.102 279.166 141.723L278.595 142.545C279.135 142.919 279.67 143.299 280.201 143.684L280.788 142.874ZM277.52 140.605C276.968 140.238 276.412 139.877 275.852 139.522L275.316 140.366C275.87 140.718 276.42 141.075 276.966 141.438L277.52 140.605ZM274.161 138.472C273.594 138.129 273.024 137.791 272.45 137.459L271.949 138.324C272.517 138.653 273.081 138.987 273.642 139.327L274.161 138.472ZM270.717 136.48C270.137 136.16 269.553 135.846 268.966 135.537L268.501 136.423C269.082 136.728 269.66 137.039 270.234 137.355L270.717 136.48ZM267.195 134.631C266.602 134.335 266.005 134.045 265.405 133.761L264.977 134.665C265.571 134.946 266.161 135.233 266.749 135.526L267.195 134.631ZM263.599 132.929C262.994 132.658 262.385 132.393 261.773 132.133L261.383 133.054C261.989 133.311 262.591 133.573 263.19 133.842L263.599 132.929ZM259.935 131.377C259.32 131.131 258.701 130.892 258.079 130.658L257.728 131.594C258.343 131.825 258.955 132.063 259.564 132.306L259.935 131.377ZM256.21 129.978C255.585 129.758 254.958 129.544 254.327 129.337L254.015 130.287C254.639 130.492 255.26 130.704 255.878 130.921L256.21 129.978ZM252.429 128.734C251.797 128.54 251.162 128.353 250.524 128.172L250.251 129.134C250.882 129.313 251.51 129.498 252.136 129.69L252.429 128.734ZM248.602 127.648C247.962 127.481 247.319 127.32 246.674 127.165L246.441 128.137C247.08 128.29 247.715 128.45 248.349 128.615L248.602 127.648ZM244.734 126.721C244.087 126.58 243.437 126.446 242.785 126.318L242.592 127.299C243.238 127.426 243.881 127.559 244.522 127.699L244.734 126.721ZM240.831 125.955C240.178 125.841 239.522 125.733 238.864 125.632L238.712 126.62C239.363 126.72 240.012 126.827 240.659 126.94L240.831 125.955ZM236.899 125.35C236.242 125.263 235.584 125.182 234.923 125.108L234.812 126.102C235.466 126.175 236.117 126.255 236.767 126.342L236.899 125.35ZM232.944 124.907C232.285 124.847 231.625 124.793 230.963 124.746L230.892 125.744C231.548 125.79 232.201 125.843 232.853 125.903L232.944 124.907ZM228.971 124.625C228.313 124.592 227.652 124.565 226.99 124.545L226.96 125.545C227.615 125.565 228.269 125.591 228.921 125.624L228.971 124.625ZM224.999 124.505C224.666 124.502 224.333 124.5 224 124.5C223.667 124.5 223.333 124.502 223.001 124.505L223.011 125.505C223.34 125.502 223.67 125.5 224 125.5C224.33 125.5 224.66 125.502 224.989 125.505L224.999 124.505ZM221.01 124.545C220.348 124.565 219.687 124.592 219.029 124.625L219.079 125.624C219.731 125.591 220.385 125.565 221.04 125.545L221.01 124.545ZM217.037 124.746C216.375 124.793 215.715 124.847 215.056 124.907L215.147 125.903C215.799 125.843 216.452 125.79 217.108 125.744L217.037 124.746ZM213.077 125.108C212.416 125.182 211.758 125.263 211.101 125.35L211.233 126.342C211.882 126.255 212.534 126.175 213.188 126.102L213.077 125.108ZM209.136 125.632C208.478 125.733 207.822 125.841 207.169 125.955L207.341 126.94C207.988 126.827 208.637 126.72 209.288 126.62L209.136 125.632ZM205.215 126.318C204.563 126.446 203.913 126.58 203.266 126.721L203.478 127.699C204.119 127.559 204.762 127.426 205.408 127.299L205.215 126.318ZM201.326 127.165C200.681 127.32 200.038 127.481 199.398 127.648L199.651 128.615C200.284 128.45 200.92 128.29 201.559 128.138L201.326 127.165ZM197.476 128.172C196.838 128.353 196.203 128.54 195.571 128.734L195.864 129.69C196.489 129.498 197.118 129.313 197.749 129.134L197.476 128.172ZM193.672 129.337C193.042 129.544 192.414 129.758 191.79 129.978L192.122 130.921C192.74 130.704 193.361 130.492 193.985 130.287L193.672 129.337ZM189.921 130.658C189.299 130.892 188.68 131.131 188.065 131.377L188.436 132.306C189.045 132.063 189.657 131.825 190.272 131.594L189.921 130.658ZM186.227 132.133C185.615 132.393 185.006 132.658 184.401 132.929L184.81 133.842C185.409 133.573 186.011 133.311 186.617 133.054L186.227 132.133ZM182.595 133.761C181.995 134.045 181.398 134.335 180.805 134.631L181.251 135.526C181.839 135.233 182.429 134.946 183.023 134.665L182.595 133.761ZM179.034 135.537C178.447 135.846 177.863 136.16 177.283 136.48L177.766 137.355C178.34 137.039 178.918 136.728 179.499 136.423L179.034 135.537ZM175.55 137.459C174.976 137.791 174.406 138.129 173.839 138.472L174.358 139.327C174.919 138.987 175.483 138.653 176.051 138.324L175.55 137.459ZM172.148 139.522C171.588 139.877 171.032 140.238 170.48 140.605L171.034 141.438C171.58 141.075 172.13 140.718 172.684 140.366L172.148 139.522ZM168.834 141.723C168.289 142.102 167.748 142.485 167.212 142.874L167.799 143.684C168.33 143.299 168.865 142.919 169.405 142.545L168.834 141.723ZM165.614 144.059C165.085 144.459 164.56 144.865 164.04 145.276L164.659 146.061C165.174 145.654 165.694 145.252 166.217 144.856L165.614 144.059ZM162.492 146.525C161.98 146.947 161.472 147.374 160.969 147.806L161.62 148.564C162.118 148.137 162.621 147.714 163.128 147.297L162.492 146.525ZM159.473 149.117C158.979 149.56 158.489 150.007 158.005 150.459L158.687 151.191C159.167 150.743 159.651 150.3 160.14 149.862L159.473 149.117ZM156.564 151.831C156.088 152.294 155.618 152.761 155.152 153.233L155.863 153.935C156.324 153.468 156.79 153.006 157.261 152.548L156.564 151.831ZM153.769 154.663C153.312 155.144 152.861 155.63 152.415 156.121L153.155 156.793C153.596 156.308 154.043 155.827 154.494 155.35L153.769 154.663ZM151.092 157.606C150.656 158.106 150.225 158.61 149.799 159.119L150.566 159.761C150.988 159.257 151.414 158.758 151.845 158.264L151.092 157.606ZM148.539 160.657C148.124 161.175 147.714 161.696 147.31 162.222L148.102 162.832C148.502 162.311 148.908 161.795 149.319 161.283L148.539 160.657ZM146.113 163.812C145.72 164.345 145.332 164.883 144.95 165.425L145.767 166.002C146.145 165.465 146.529 164.933 146.918 164.405L146.113 163.812ZM143.82 167.063C143.449 167.613 143.084 168.166 142.724 168.723L143.565 169.265C143.921 168.714 144.282 168.166 144.649 167.623L143.82 167.063ZM141.663 170.407C141.315 170.971 140.974 171.539 140.638 172.111L141.5 172.618C141.832 172.052 142.171 171.49 142.514 170.931L141.663 170.407ZM139.647 173.837C139.323 174.415 139.005 174.997 138.693 175.583L139.575 176.053C139.884 175.474 140.199 174.898 140.52 174.326L139.647 173.837ZM137.775 177.347C137.476 177.939 137.182 178.534 136.894 179.133L137.795 179.566C138.08 178.974 138.371 178.385 138.667 177.799L137.775 177.347ZM136.052 180.933C135.777 181.537 135.508 182.144 135.246 182.754L136.164 183.149C136.424 182.545 136.69 181.945 136.962 181.348L136.052 180.933ZM134.479 184.588C134.23 185.202 133.987 185.82 133.75 186.44L134.684 186.797C134.918 186.183 135.159 185.572 135.405 184.964L134.479 184.588ZM133.06 188.307C132.837 188.93 132.62 189.556 132.41 190.186L133.358 190.503C133.567 189.88 133.781 189.26 134.002 188.643L133.06 188.307ZM131.798 192.082C131.602 192.713 131.412 193.348 131.228 193.985L132.189 194.262C132.371 193.632 132.559 193.004 132.753 192.379L131.798 192.082ZM130.697 195.904C130.527 196.544 130.363 197.186 130.206 197.831L131.178 198.067C131.333 197.429 131.495 196.794 131.663 196.161L130.697 195.904ZM129.756 199.769C129.613 200.416 129.476 201.066 129.346 201.717L130.327 201.913C130.456 201.268 130.591 200.625 130.732 199.985L129.756 199.769ZM128.978 203.67C128.862 204.323 128.753 204.979 128.65 205.636L129.638 205.791C129.739 205.14 129.848 204.491 129.963 203.845L128.978 203.67ZM128.364 207.601C128.275 208.258 128.193 208.916 128.118 209.577L129.111 209.69C129.186 209.036 129.267 208.385 129.355 207.735L128.364 207.601ZM127.913 211.556C127.852 212.214 127.798 212.875 127.75 213.537L128.747 213.608C128.795 212.953 128.849 212.3 128.909 211.649L127.913 211.556ZM127.627 215.528C127.593 216.187 127.566 216.847 127.546 217.51L128.545 217.54C128.566 216.885 128.592 216.231 128.626 215.579L127.627 215.528ZM127.505 219.501C127.502 219.833 127.5 220.167 127.5 220.5C127.5 220.833 127.502 221.167 127.505 221.499L128.505 221.489C128.502 221.16 128.5 220.83 128.5 220.5C128.5 220.17 128.502 219.84 128.505 219.511L127.505 219.501ZM127.546 223.49C127.566 224.153 127.593 224.813 127.627 225.472L128.626 225.421C128.592 224.769 128.566 224.115 128.545 223.46L127.546 223.49ZM127.75 227.463C127.798 228.125 127.852 228.786 127.913 229.444L128.909 229.351C128.849 228.7 128.795 228.047 128.747 227.392L127.75 227.463ZM128.118 231.423C128.193 232.084 128.275 232.742 128.364 233.399L129.355 233.265C129.267 232.615 129.186 231.964 129.111 231.31L128.118 231.423ZM128.65 235.364C128.753 236.021 128.862 236.677 128.978 237.33L129.963 237.155C129.848 236.509 129.739 235.86 129.638 235.209L128.65 235.364ZM129.346 239.283C129.476 239.934 129.613 240.584 129.756 241.231L130.732 241.015C130.591 240.375 130.456 239.732 130.327 239.087L129.346 239.283ZM130.206 243.169C130.363 243.814 130.527 244.456 130.697 245.096L131.663 244.839C131.495 244.206 131.333 243.571 131.178 242.933L130.206 243.169ZM131.228 247.015C131.412 247.652 131.602 248.287 131.798 248.918L132.753 248.621C132.559 247.996 132.371 247.369 132.189 246.738L131.228 247.015ZM132.41 250.814C132.62 251.444 132.837 252.07 133.06 252.693L134.002 252.357C133.781 251.74 133.567 251.12 133.358 250.497L132.41 250.814ZM133.75 254.56C133.987 255.18 134.23 255.798 134.479 256.412L135.405 256.036C135.159 255.428 134.918 254.817 134.684 254.203L133.75 254.56ZM135.246 258.246C135.508 258.856 135.777 259.463 136.052 260.067L136.962 259.652C136.69 259.055 136.424 258.455 136.164 257.851L135.246 258.246ZM136.894 261.867C137.182 262.466 137.476 263.061 137.775 263.653L138.667 263.201C138.371 262.615 138.08 262.026 137.795 261.434L136.894 261.867ZM138.693 265.417C139.005 266.003 139.323 266.585 139.647 267.163L140.52 266.675C140.199 266.102 139.884 265.526 139.575 264.947L138.693 265.417ZM140.638 268.889C140.974 269.461 141.315 270.029 141.663 270.593L142.514 270.069C142.171 269.51 141.832 268.948 141.5 268.382L140.638 268.889ZM142.725 272.277C143.084 272.834 143.449 273.387 143.82 273.937L144.649 273.377C144.282 272.834 143.921 272.286 143.565 271.735L142.725 272.277ZM144.95 275.575C145.332 276.117 145.72 276.655 146.113 277.188L146.918 276.595C146.529 276.067 146.145 275.535 145.767 274.998L144.95 275.575ZM147.31 278.778C147.714 279.304 148.124 279.825 148.539 280.343L149.319 279.717C148.908 279.205 148.502 278.689 148.102 278.168L147.31 278.778ZM149.799 281.881C150.225 282.39 150.656 282.894 151.092 283.394L151.845 282.736C151.414 282.242 150.988 281.743 150.566 281.239L149.799 281.881ZM152.415 284.879C152.861 285.37 153.312 285.856 153.769 286.337L154.494 285.65C154.043 285.173 153.596 284.692 153.155 284.207L152.415 284.879ZM155.152 287.767C155.618 288.239 156.088 288.706 156.564 289.169L157.261 288.452C156.79 287.994 156.324 287.532 155.863 287.065L155.152 287.767ZM158.005 290.541C158.489 290.993 158.979 291.44 159.473 291.883L160.14 291.138C159.651 290.7 159.167 290.257 158.687 289.809L158.005 290.541ZM160.969 293.194C161.472 293.626 161.98 294.053 162.492 294.475L163.128 293.703C162.621 293.286 162.118 292.863 161.62 292.436L160.969 293.194ZM164.04 295.724C164.56 296.135 165.085 296.541 165.614 296.941L166.217 296.144C165.694 295.748 165.174 295.346 164.659 294.939L164.04 295.724ZM167.212 298.126C167.748 298.515 168.289 298.898 168.834 299.277L169.405 298.455C168.865 298.081 168.33 297.701 167.799 297.316L167.212 298.126ZM170.48 300.395C171.032 300.762 171.588 301.123 172.148 301.478L172.684 300.634C172.13 300.282 171.58 299.925 171.034 299.562L170.48 300.395ZM173.839 302.528C174.406 302.871 174.976 303.209 175.55 303.541L176.051 302.676C175.483 302.347 174.919 302.013 174.358 301.673L173.839 302.528ZM177.283 304.52C177.863 304.84 178.447 305.154 179.034 305.463L179.499 304.577C178.918 304.272 178.34 303.961 177.766 303.645L177.283 304.52ZM180.805 306.369C181.398 306.665 181.995 306.955 182.595 307.239L183.023 306.335C182.429 306.054 181.839 305.767 181.251 305.474L180.805 306.369ZM184.401 308.071C185.006 308.342 185.615 308.607 186.227 308.867L186.617 307.946C186.011 307.689 185.409 307.427 184.81 307.158L184.401 308.071ZM188.065 309.623C188.68 309.869 189.299 310.108 189.921 310.342L190.272 309.406C189.657 309.175 189.045 308.937 188.436 308.694L188.065 309.623ZM191.79 311.022C192.415 311.242 193.042 311.456 193.673 311.663L193.985 310.713C193.361 310.508 192.74 310.296 192.122 310.079L191.79 311.022ZM195.571 312.266C196.203 312.46 196.838 312.647 197.476 312.828L197.749 311.866C197.118 311.687 196.49 311.502 195.864 311.31L195.571 312.266ZM199.398 313.352C200.038 313.519 200.681 313.68 201.326 313.835L201.559 312.863C200.92 312.71 200.285 312.55 199.651 312.385L199.398 313.352ZM203.266 314.279C203.913 314.42 204.563 314.554 205.215 314.682L205.408 313.701C204.762 313.574 204.119 313.441 203.478 313.301L203.266 314.279ZM207.169 315.045C207.822 315.159 208.478 315.267 209.136 315.368L209.288 314.38C208.637 314.28 207.988 314.173 207.341 314.06L207.169 315.045ZM211.101 315.65C211.758 315.737 212.416 315.818 213.077 315.892L213.188 314.898C212.534 314.825 211.883 314.745 211.233 314.658L211.101 315.65ZM215.056 316.093C215.715 316.153 216.375 316.207 217.037 316.254L217.108 315.256C216.452 315.21 215.799 315.157 215.147 315.097L215.056 316.093Z" stroke="black" stroke-dasharray="2 2"/>
</svg>
