<svg width="180" height="39" viewBox="0 0 180 39" fill="none" xmlns="http://www.w3.org/2000/svg">
<path d="M0 12.6744C0 11.149 0.292683 9.71786 0.878049 8.38101C1.46341 7.04417 2.25538 5.87871 3.25395 4.88464C4.26973 3.87343 5.44907 3.07647 6.79197 2.49374C8.13486 1.91101 9.57245 1.61964 11.1047 1.61964H28.0976V8.99802H11.1047C10.5882 8.99802 10.1062 9.09229 9.65854 9.28082C9.2109 9.46935 8.81492 9.735 8.47059 10.0778C8.14347 10.4034 7.88522 10.7891 7.69584 11.2347C7.50646 11.6803 7.41176 12.1602 7.41176 12.6744C7.41176 13.1885 7.50646 13.677 7.69584 14.1397C7.88522 14.5854 8.14347 14.9796 8.47059 15.3223C8.81492 15.648 9.2109 15.9051 9.65854 16.0936C10.1062 16.2821 10.5882 16.3764 11.1047 16.3764H18.5165C20.0488 16.3764 21.4864 16.6678 22.8293 17.2505C24.1894 17.8161 25.3687 18.6045 26.3673 19.6157C27.3831 20.6098 28.175 21.7838 28.7432 23.1378C29.3286 24.4746 29.6212 25.9057 29.6212 27.4311C29.6212 28.9565 29.3286 30.3876 28.7432 31.7245C28.175 33.0613 27.3831 34.2353 26.3673 35.2465C25.3687 36.2406 24.1894 37.029 22.8293 37.6117C21.4864 38.1945 20.0488 38.4858 18.5165 38.4858H2.066V31.1074H18.5165C19.033 31.1074 19.5151 31.0132 19.9627 30.8247C20.4103 30.6361 20.7977 30.379 21.1248 30.0534C21.4692 29.7106 21.736 29.3164 21.9254 28.8708C22.1148 28.4252 22.2095 27.9453 22.2095 27.4311C22.2095 26.9169 22.1148 26.437 21.9254 25.9914C21.736 25.5458 21.4692 25.1602 21.1248 24.8345C20.7977 24.4918 20.4103 24.2261 19.9627 24.0376C19.5151 23.849 19.033 23.7548 18.5165 23.7548H11.1047C9.57245 23.7548 8.13486 23.4634 6.79197 22.8807C5.44907 22.298 4.26973 21.5096 3.25395 20.5155C2.25538 19.5043 1.46341 18.3303 0.878049 16.9934C0.292683 15.6394 0 14.1997 0 12.6744Z" fill="black"/>
<path d="M60.4821 24.4746C60.4821 26.5313 60.1119 28.4509 59.3716 30.2334C58.6313 31.9987 57.6241 33.5326 56.3501 34.8352C55.076 36.1206 53.5782 37.1404 51.8565 37.8945C50.1521 38.6315 48.3185 39 46.3558 39C44.4103 39 42.5768 38.6315 40.8551 37.8945C39.1506 37.1404 37.6528 36.1206 36.3615 34.8352C35.0875 33.5326 34.0803 31.9987 33.34 30.2334C32.5997 28.4509 32.2296 26.5313 32.2296 24.4746C32.2296 22.3837 32.5997 20.4469 33.34 18.6645C34.0803 16.882 35.0875 15.3481 36.3615 14.0626C37.6528 12.7601 39.1506 11.7403 40.8551 11.0033C42.5768 10.2663 44.4103 9.89782 46.3558 9.89782C48.3185 9.89782 50.1521 10.2492 51.8565 10.9519C53.5782 11.6374 55.076 12.6229 56.3501 13.9084C57.6241 15.1767 58.6313 16.7106 59.3716 18.5102C60.1119 20.2927 60.4821 22.2808 60.4821 24.4746ZM53.3802 24.4746C53.3802 23.3434 53.1908 22.3237 52.8121 21.4153C52.4505 20.4898 51.9512 19.7014 51.3142 19.0501C50.6772 18.3817 49.9283 17.8761 49.0674 17.5333C48.2238 17.1734 47.3199 16.9934 46.3558 16.9934C45.3917 16.9934 44.4792 17.1734 43.6184 17.5333C42.7747 17.8761 42.0344 18.3817 41.3974 19.0501C40.7776 19.7014 40.2869 20.4898 39.9254 21.4153C39.5638 22.3237 39.3831 23.3434 39.3831 24.4746C39.3831 25.5372 39.5638 26.5227 39.9254 27.4311C40.2869 28.3395 40.7776 29.1279 41.3974 29.7963C42.0344 30.4647 42.7747 30.996 43.6184 31.3902C44.4792 31.7673 45.3917 31.9558 46.3558 31.9558C47.3199 31.9558 48.2238 31.7759 49.0674 31.416C49.9283 31.056 50.6772 30.5504 51.3142 29.8991C51.9512 29.2479 52.4505 28.4595 52.8121 27.5339C53.1908 26.6084 53.3802 25.5887 53.3802 24.4746Z" fill="black"/>
<path d="M71.4835 38.4858H64.3816V0H71.4835V38.4858Z" fill="black"/>
<path d="M90.7489 38.4858C89.0445 38.4858 87.4433 38.1688 85.9455 37.5346C84.4476 36.8833 83.1306 36.0007 81.9943 34.8866C80.8752 33.7554 79.9885 32.4443 79.3343 30.9532C78.6973 29.4621 78.3788 27.8682 78.3788 26.1714V17.996H74.944V11.0033H78.3788V0H85.4032V11.0033H96.0947V17.996H85.4032V26.1714C85.4032 26.9084 85.5409 27.6025 85.8164 28.2538C86.0918 28.8879 86.4706 29.445 86.9527 29.9249C87.4347 30.4047 88.0029 30.7904 88.6571 31.0817C89.3113 31.356 90.0086 31.4931 90.7489 31.4931H96.0947V38.4858H90.7489Z" fill="black"/>
<path d="M111.073 31.7502C111.349 31.8359 111.624 31.8958 111.9 31.9301C112.175 31.9473 112.451 31.9558 112.726 31.9558C113.415 31.9558 114.077 31.8616 114.714 31.673C115.352 31.4845 115.945 31.2189 116.496 30.8761C117.065 30.5161 117.564 30.0877 117.994 29.5906C118.442 29.0765 118.803 28.5109 119.079 27.8939L124.244 33.0613C123.59 33.9868 122.832 34.8181 121.971 35.555C121.128 36.292 120.207 36.9176 119.208 37.4318C118.227 37.9459 117.185 38.3316 116.083 38.5887C114.999 38.8629 113.879 39 112.726 39C110.78 39 108.947 38.6401 107.225 37.9202C105.521 37.2004 104.023 36.1978 102.732 34.9123C101.458 33.6269 100.451 32.1015 99.7102 30.3362C98.9699 28.5537 98.5997 26.5999 98.5997 24.4746C98.5997 22.298 98.9699 20.3098 99.7102 18.5102C100.451 16.7106 101.458 15.1767 102.732 13.9084C104.023 12.6401 105.521 11.6546 107.225 10.9519C108.947 10.2492 110.78 9.89782 112.726 9.89782C113.879 9.89782 115.007 10.0349 116.109 10.3092C117.211 10.5834 118.253 10.9776 119.234 11.4918C120.232 12.0059 121.162 12.6401 122.023 13.3942C122.884 14.1312 123.641 14.9624 124.296 15.8879L111.073 31.7502ZM114.689 17.2762C114.362 17.1562 114.034 17.0791 113.707 17.0448C113.397 17.0105 113.07 16.9934 112.726 16.9934C111.762 16.9934 110.849 17.1734 109.989 17.5333C109.145 17.8761 108.405 18.3731 107.768 19.0244C107.148 19.6757 106.657 20.4641 106.296 21.3896C105.934 22.298 105.753 23.3263 105.753 24.4746C105.753 24.7317 105.762 25.0231 105.779 25.3487C105.813 25.6744 105.857 26.0086 105.908 26.3514C105.977 26.677 106.055 26.9941 106.141 27.3026C106.227 27.6111 106.339 27.8853 106.476 28.1252L114.689 17.2762Z" fill="black"/>
<path d="M151.825 16.4278L146.66 21.5953C146.402 20.8754 146.049 20.2327 145.601 19.6671C145.154 19.0844 144.646 18.5959 144.077 18.2017C143.527 17.8075 142.924 17.5076 142.27 17.3019C141.615 17.0962 140.944 16.9934 140.255 16.9934C139.291 16.9934 138.379 17.1905 137.518 17.5847C136.674 17.9789 135.934 18.5359 135.297 19.2558C134.677 19.9585 134.187 20.7983 133.825 21.7752C133.463 22.7521 133.283 23.8319 133.283 25.0145C133.283 25.9743 133.463 26.8741 133.825 27.7139C134.187 28.5537 134.677 29.2907 135.297 29.9249C135.934 30.559 136.674 31.056 137.518 31.416C138.379 31.7759 139.291 31.9558 140.255 31.9558C140.944 31.9558 141.607 31.8616 142.244 31.673C142.881 31.4845 143.475 31.2189 144.026 30.8761C144.594 30.5161 145.093 30.0877 145.524 29.5906C145.971 29.0765 146.333 28.5109 146.608 27.8939L151.773 33.0613C151.119 33.9868 150.362 34.8181 149.501 35.555C148.657 36.292 147.736 36.9176 146.737 37.4318C145.756 37.9459 144.714 38.3316 143.613 38.5887C142.528 38.8629 141.409 39 140.255 39C138.31 39 136.476 38.6401 134.755 37.9202C133.05 37.1833 131.552 36.1806 130.261 34.9123C128.987 33.644 127.98 32.1615 127.24 30.4647C126.499 28.768 126.129 26.9512 126.129 25.0145C126.129 22.9064 126.499 20.9354 127.24 19.1015C127.98 17.2676 128.987 15.6737 130.261 14.3197C131.552 12.9486 133.05 11.8688 134.755 11.0804C136.476 10.292 138.31 9.89782 140.255 9.89782C141.409 9.89782 142.537 10.0435 143.638 10.3349C144.758 10.6262 145.816 11.0547 146.815 11.6203C147.831 12.1688 148.76 12.8457 149.604 13.6513C150.465 14.4568 151.205 15.3823 151.825 16.4278Z" fill="black"/>
<path d="M162.336 38.4858H155.286V0H162.336V12.1602C163.179 11.526 164.049 11.0804 164.944 10.8233C165.839 10.5491 166.752 10.412 167.681 10.412C169.386 10.412 170.987 10.7376 172.485 11.3889C173.983 12.0231 175.283 12.9057 176.385 14.0369C177.504 15.151 178.382 16.4621 179.019 17.9703C179.673 19.4614 180 21.0554 180 22.7521V38.4858H172.898V22.7521C172.898 22.0323 172.812 21.3553 172.537 20.7212C172.261 20.0699 171.882 19.5043 171.4 19.0244C170.918 18.5445 170.359 18.1674 169.722 17.8932C169.085 17.619 168.405 17.4819 167.681 17.4819C166.941 17.4819 166.244 17.619 165.59 17.8932C164.935 18.1674 164.367 18.5445 163.885 19.0244C163.403 19.5043 163.024 20.0699 162.749 20.7212C162.473 21.3553 162.336 22.0323 162.336 22.7521V38.4858Z" fill="black"/>
</svg>
