<svg width="230" height="50" viewBox="0 0 230 50" fill="none" xmlns="http://www.w3.org/2000/svg">
<path d="M0 16.2492C0 14.2936 0.373984 12.4588 1.12195 10.7449C1.86992 9.03098 2.88187 7.5368 4.15782 6.26236C5.45576 4.96594 6.9627 3.94419 8.67862 3.1971C10.3945 2.45001 12.2315 2.07647 14.1894 2.07647H35.9024V11.5359H14.1894C13.5294 11.5359 12.9134 11.6568 12.3415 11.8985C11.7695 12.1402 11.2635 12.4808 10.8235 12.9202C10.4055 13.3377 10.0756 13.8321 9.83357 14.4034C9.59158 14.9747 9.47059 15.59 9.47059 16.2492C9.47059 16.9084 9.59158 17.5346 9.83357 18.1279C10.0756 18.6992 10.4055 19.2046 10.8235 19.644C11.2635 20.0615 11.7695 20.3911 12.3415 20.6328C12.9134 20.8745 13.5294 20.9954 14.1894 20.9954H23.66C25.6179 20.9954 27.4548 21.3689 29.1707 22.116C30.9087 22.8411 32.4156 23.8519 33.6915 25.1483C34.9895 26.4228 36.0014 27.9279 36.7274 29.6638C37.4754 31.3777 37.8494 33.2125 37.8494 35.1681C37.8494 37.1237 37.4754 38.9585 36.7274 40.6724C36.0014 42.3863 34.9895 43.8915 33.6915 45.1879C32.4156 46.4623 30.9087 47.4731 29.1707 48.2202C27.4548 48.9673 25.6179 49.3408 23.66 49.3408H2.63989V39.8813H23.66C24.3199 39.8813 24.9359 39.7605 25.5079 39.5188C26.0799 39.2771 26.5748 38.9475 26.9928 38.53C27.4328 38.0905 27.7738 37.5851 28.0158 37.0138C28.2578 36.4425 28.3788 35.8273 28.3788 35.1681C28.3788 34.5089 28.2578 33.8937 28.0158 33.3223C27.7738 32.751 27.4328 32.2566 26.9928 31.8392C26.5748 31.3997 26.0799 31.0591 25.5079 30.8174C24.9359 30.5757 24.3199 30.4548 23.66 30.4548H14.1894C12.2315 30.4548 10.3945 30.0813 8.67862 29.3342C6.9627 28.5871 5.45576 27.5764 4.15782 26.3019C2.88187 25.0055 1.86992 23.5003 1.12195 21.7864C0.373984 20.0505 0 18.2048 0 16.2492Z" fill="white"/>
<path d="M77.2826 31.3777C77.2826 34.0145 76.8097 36.4755 75.8637 38.7607C74.9177 41.0239 73.6308 42.9906 72.0029 44.6605C70.3749 46.3085 68.461 47.6159 66.2611 48.5827C64.0832 49.5276 61.7403 50 59.2324 50C56.7465 50 54.4036 49.5276 52.2037 48.5827C50.0258 47.6159 48.1119 46.3085 46.462 44.6605C44.834 42.9906 43.5471 41.0239 42.6011 38.7607C41.6552 36.4755 41.1822 34.0145 41.1822 31.3777C41.1822 28.697 41.6552 26.214 42.6011 23.9288C43.5471 21.6436 44.834 19.677 46.462 18.029C48.1119 16.359 50.0258 15.0516 52.2037 14.1068C54.4036 13.1619 56.7465 12.6895 59.2324 12.6895C61.7403 12.6895 64.0832 13.14 66.2611 14.0409C68.461 14.9198 70.3749 16.1833 72.0029 17.8312C73.6308 19.4573 74.9177 21.4239 75.8637 23.731C76.8097 26.0163 77.2826 28.5651 77.2826 31.3777ZM68.208 31.3777C68.208 29.9275 67.966 28.6201 67.4821 27.4555C67.0201 26.269 66.3821 25.2582 65.5681 24.4232C64.7542 23.5662 63.7972 22.918 62.6973 22.4786C61.6193 22.0171 60.4644 21.7864 59.2324 21.7864C58.0005 21.7864 56.8345 22.0171 55.7346 22.4786C54.6566 22.918 53.7107 23.5662 52.8967 24.4232C52.1047 25.2582 51.4778 26.269 51.0158 27.4555C50.5538 28.6201 50.3228 29.9275 50.3228 31.3777C50.3228 32.7401 50.5538 34.0035 51.0158 35.1681C51.4778 36.3327 52.1047 37.3434 52.8967 38.2004C53.7107 39.0574 54.6566 39.7385 55.7346 40.2439C56.8345 40.7273 58.0005 40.969 59.2324 40.969C60.4644 40.969 61.6193 40.7383 62.6973 40.2769C63.7972 39.8154 64.7542 39.1672 65.5681 38.3322C66.3821 37.4973 67.0201 36.4865 67.4821 35.2999C67.966 34.1134 68.208 32.806 68.208 31.3777Z" fill="white"/>
<path d="M91.34 49.3408H82.2654V0H91.34V49.3408Z" fill="white"/>
<path d="M115.957 49.3408C113.779 49.3408 111.733 48.9343 109.819 48.1213C107.905 47.2863 106.222 46.1547 104.77 44.7264C103.341 43.2762 102.208 41.5953 101.372 39.6836C100.558 37.7719 100.151 35.7284 100.151 33.5531V23.0719H95.7618V14.1068H100.151V0H109.126V14.1068H122.788V23.0719H109.126V33.5531C109.126 34.4979 109.302 35.3878 109.654 36.2228C110.006 37.0358 110.49 37.7499 111.106 38.3652C111.722 38.9804 112.448 39.4748 113.284 39.8484C114.12 40.2 115.011 40.3757 115.957 40.3757H122.788V49.3408H115.957Z" fill="white"/>
<path d="M141.927 40.7053C142.279 40.8152 142.631 40.8921 142.983 40.9361C143.335 40.958 143.687 40.969 144.039 40.969C144.919 40.969 145.766 40.8482 146.58 40.6065C147.394 40.3648 148.153 40.0242 148.857 39.5847C149.582 39.1233 150.22 38.5739 150.77 37.9367C151.342 37.2775 151.804 36.5524 152.156 35.7614L158.756 42.3863C157.92 43.5728 156.952 44.6385 155.852 45.5834C154.774 46.5282 153.597 47.3303 152.321 47.9895C151.067 48.6486 149.736 49.143 148.329 49.4726C146.943 49.8242 145.513 50 144.039 50C141.553 50 139.21 49.5386 137.01 48.6157C134.832 47.6928 132.918 46.4074 131.268 44.7594C129.64 43.1114 128.353 41.1558 127.407 38.8926C126.462 36.6073 125.989 34.1024 125.989 31.3777C125.989 28.5871 126.462 26.0382 127.407 23.731C128.353 21.4239 129.64 19.4573 131.268 17.8312C132.918 16.2052 134.832 14.9418 137.01 14.0409C139.21 13.14 141.553 12.6895 144.039 12.6895C145.513 12.6895 146.954 12.8653 148.362 13.2169C149.769 13.5684 151.1 14.0738 152.354 14.733C153.63 15.3922 154.818 16.2052 155.918 17.1721C157.018 18.1169 157.986 19.1826 158.822 20.3691L141.927 40.7053ZM146.547 22.149C146.129 21.9952 145.711 21.8963 145.293 21.8523C144.897 21.8084 144.479 21.7864 144.039 21.7864C142.807 21.7864 141.641 22.0171 140.541 22.4786C139.463 22.918 138.517 23.5553 137.703 24.3902C136.911 25.2252 136.284 26.236 135.822 27.4225C135.36 28.5871 135.129 29.9055 135.129 31.3777C135.129 31.7073 135.14 32.0809 135.162 32.4984C135.206 32.9158 135.261 33.3443 135.327 33.7838C135.415 34.2013 135.514 34.6078 135.624 35.0033C135.734 35.3988 135.877 35.7504 136.053 36.058L146.547 22.149Z" fill="white"/>
<path d="M193.999 21.0613L187.399 27.6862C187.069 26.7633 186.618 25.9394 186.046 25.2142C185.474 24.4671 184.825 23.8409 184.099 23.3355C183.395 22.8301 182.625 22.4456 181.789 22.1819C180.953 21.9183 180.095 21.7864 179.215 21.7864C177.983 21.7864 176.817 22.0391 175.717 22.5445C174.639 23.0499 173.693 23.764 172.879 24.6869C172.088 25.5878 171.461 26.6645 170.999 27.9169C170.537 29.1694 170.306 30.5537 170.306 32.0699C170.306 33.3004 170.537 34.454 170.999 35.5307C171.461 36.6073 172.088 37.5522 172.879 38.3652C173.693 39.1782 174.639 39.8154 175.717 40.2769C176.817 40.7383 177.983 40.969 179.215 40.969C180.095 40.969 180.942 40.8482 181.756 40.6065C182.57 40.3648 183.329 40.0242 184.033 39.5847C184.759 39.1233 185.397 38.5739 185.947 37.9367C186.519 37.2775 186.981 36.5524 187.333 35.7614L193.933 42.3863C193.097 43.5728 192.129 44.6385 191.029 45.5834C189.951 46.5282 188.774 47.3303 187.498 47.9895C186.244 48.6486 184.913 49.143 183.505 49.4726C182.119 49.8242 180.689 50 179.215 50C176.729 50 174.386 49.5386 172.187 48.6157C170.009 47.6708 168.095 46.3854 166.445 44.7594C164.817 43.1334 163.53 41.2327 162.584 39.0574C161.638 36.882 161.165 34.5528 161.165 32.0699C161.165 29.3672 161.638 26.8403 162.584 24.4891C163.53 22.138 164.817 20.0945 166.445 18.3586C168.095 16.6007 170.009 15.2164 172.187 14.2057C174.386 13.1949 176.729 12.6895 179.215 12.6895C180.689 12.6895 182.13 12.8763 183.538 13.2498C184.968 13.6234 186.321 14.1727 187.597 14.8978C188.895 15.601 190.083 16.4689 191.161 17.5016C192.261 18.5344 193.207 19.7209 193.999 21.0613Z" fill="white"/>
<path d="M207.429 49.3408H198.42V0H207.429V15.59C208.507 14.777 209.618 14.2057 210.762 13.8761C211.906 13.5245 213.072 13.3487 214.26 13.3487C216.438 13.3487 218.483 13.7662 220.397 14.6012C222.311 15.4142 223.972 16.5458 225.38 17.996C226.81 19.4243 227.932 21.1053 228.746 23.0389C229.582 24.9506 230 26.9941 230 29.1694V49.3408H220.925V29.1694C220.925 28.2465 220.815 27.3786 220.463 26.5656C220.111 25.7306 219.627 25.0055 219.011 24.3902C218.395 23.775 217.681 23.2916 216.867 22.94C216.053 22.5884 215.184 22.4127 214.26 22.4127C213.314 22.4127 212.423 22.5884 211.587 22.94C210.751 23.2916 210.025 23.775 209.409 24.3902C208.793 25.0055 208.309 25.7306 207.957 26.5656C207.605 27.3786 207.429 28.2465 207.429 29.1694V49.3408Z" fill="white"/>
</svg>
