<svg width="355" height="79" viewBox="0 0 355 79" fill="none" xmlns="http://www.w3.org/2000/svg">
<path d="M0.460938 26.0156C0.460938 23.0026 1.03646 20.1758 2.1875 17.5352C3.33854 14.8945 4.89583 12.5924 6.85938 10.6289C8.85677 8.63151 11.1758 7.05729 13.8164 5.90625C16.457 4.75521 19.2839 4.17969 22.2969 4.17969H55.7109V18.7539H22.2969C21.2812 18.7539 20.3333 18.9401 19.4531 19.3125C18.5729 19.6849 17.7943 20.2096 17.1172 20.8867C16.474 21.5299 15.9661 22.2917 15.5938 23.1719C15.2214 24.0521 15.0352 25 15.0352 26.0156C15.0352 27.0312 15.2214 27.9961 15.5938 28.9102C15.9661 29.7904 16.474 30.569 17.1172 31.2461C17.7943 31.8893 18.5729 32.3971 19.4531 32.7695C20.3333 33.1419 21.2812 33.3281 22.2969 33.3281H36.8711C39.8841 33.3281 42.7109 33.9036 45.3516 35.0547C48.026 36.1719 50.3451 37.7292 52.3086 39.7266C54.306 41.6901 55.8633 44.0091 56.9805 46.6836C58.1315 49.3242 58.707 52.151 58.707 55.1641C58.707 58.1771 58.1315 61.0039 56.9805 63.6445C55.8633 66.2852 54.306 68.6042 52.3086 70.6016C50.3451 72.5651 48.026 74.1224 45.3516 75.2734C42.7109 76.4245 39.8841 77 36.8711 77H4.52344V62.4258H36.8711C37.8867 62.4258 38.8346 62.2396 39.7148 61.8672C40.5951 61.4948 41.3568 60.987 42 60.3438C42.6771 59.6667 43.2018 58.888 43.5742 58.0078C43.9466 57.1276 44.1328 56.1797 44.1328 55.1641C44.1328 54.1484 43.9466 53.2005 43.5742 52.3203C43.2018 51.4401 42.6771 50.6784 42 50.0352C41.3568 49.3581 40.5951 48.8333 39.7148 48.4609C38.8346 48.0885 37.8867 47.9023 36.8711 47.9023H22.2969C19.2839 47.9023 16.457 47.3268 13.8164 46.1758C11.1758 45.0247 8.85677 43.4674 6.85938 41.5039C4.89583 39.5065 3.33854 37.1875 2.1875 34.5469C1.03646 31.8724 0.460938 29.0286 0.460938 26.0156Z" fill="#4E598C"/>
<path d="M119.391 49.3242C119.391 53.3867 118.663 57.1784 117.207 60.6992C115.751 64.1862 113.771 67.2161 111.266 69.7891C108.76 72.3281 105.815 74.3424 102.43 75.832C99.0781 77.2878 95.4727 78.0156 91.6133 78.0156C87.7878 78.0156 84.1823 77.2878 80.7969 75.832C77.4453 74.3424 74.5 72.3281 71.9609 69.7891C69.4557 67.2161 67.4753 64.1862 66.0195 60.6992C64.5638 57.1784 63.8359 53.3867 63.8359 49.3242C63.8359 45.194 64.5638 41.3685 66.0195 37.8477C67.4753 34.3268 69.4557 31.2969 71.9609 28.7578C74.5 26.1849 77.4453 24.1706 80.7969 22.7148C84.1823 21.2591 87.7878 20.5312 91.6133 20.5312C95.4727 20.5312 99.0781 21.2253 102.43 22.6133C105.815 23.9674 108.76 25.9141 111.266 28.4531C113.771 30.9583 115.751 33.9883 117.207 37.543C118.663 41.0638 119.391 44.9909 119.391 49.3242ZM105.426 49.3242C105.426 47.0898 105.053 45.0755 104.309 43.2812C103.598 41.4531 102.616 39.8958 101.363 38.6094C100.111 37.2891 98.638 36.2904 96.9453 35.6133C95.2865 34.9023 93.5091 34.5469 91.6133 34.5469C89.7174 34.5469 87.9232 34.9023 86.2305 35.6133C84.5716 36.2904 83.1159 37.2891 81.8633 38.6094C80.6445 39.8958 79.6797 41.4531 78.9688 43.2812C78.2578 45.0755 77.9023 47.0898 77.9023 49.3242C77.9023 51.4232 78.2578 53.3698 78.9688 55.1641C79.6797 56.9583 80.6445 58.5156 81.8633 59.8359C83.1159 61.1562 84.5716 62.2057 86.2305 62.9844C87.9232 63.7292 89.7174 64.1016 91.6133 64.1016C93.5091 64.1016 95.2865 63.7461 96.9453 63.0352C98.638 62.3242 100.111 61.3255 101.363 60.0391C102.616 58.7526 103.598 57.1953 104.309 55.3672C105.053 53.5391 105.426 51.5247 105.426 49.3242Z" fill="#4E598C"/>
<path d="M141.023 77H127.059V0.980469H141.023V77Z" fill="#4E598C"/>
<path d="M178.906 77C175.555 77 172.406 76.3737 169.461 75.1211C166.516 73.8346 163.926 72.0911 161.691 69.8906C159.491 67.6562 157.747 65.0664 156.461 62.1211C155.208 59.1758 154.582 56.0273 154.582 52.6758V36.5273H147.828V22.7148H154.582V0.980469H168.395V22.7148H189.418V36.5273H168.395V52.6758C168.395 54.1315 168.665 55.5026 169.207 56.7891C169.749 58.0417 170.493 59.1419 171.441 60.0898C172.389 61.0378 173.507 61.7995 174.793 62.375C176.079 62.9167 177.451 63.1875 178.906 63.1875H189.418V77H178.906Z" fill="#4E598C"/>
<path d="M218.871 63.6953C219.413 63.8646 219.954 63.9831 220.496 64.0508C221.038 64.0846 221.579 64.1016 222.121 64.1016C223.475 64.1016 224.779 63.9154 226.031 63.543C227.284 63.1706 228.452 62.6458 229.535 61.9688C230.652 61.2578 231.634 60.4115 232.48 59.4297C233.361 58.4141 234.072 57.2969 234.613 56.0781L244.77 66.2852C243.483 68.1133 241.993 69.7552 240.301 71.2109C238.642 72.6667 236.831 73.9023 234.867 74.918C232.938 75.9336 230.889 76.6953 228.723 77.2031C226.59 77.7448 224.389 78.0156 222.121 78.0156C218.296 78.0156 214.69 77.3047 211.305 75.8828C207.953 74.4609 205.008 72.4805 202.469 69.9414C199.964 67.4023 197.983 64.3893 196.527 60.9023C195.072 57.3815 194.344 53.5221 194.344 49.3242C194.344 45.0247 195.072 41.0977 196.527 37.543C197.983 33.9883 199.964 30.9583 202.469 28.4531C205.008 25.9479 207.953 24.0013 211.305 22.6133C214.69 21.2253 218.296 20.5312 222.121 20.5312C224.389 20.5312 226.607 20.8021 228.773 21.3438C230.94 21.8854 232.988 22.6641 234.918 23.6797C236.882 24.6953 238.71 25.9479 240.402 27.4375C242.095 28.8932 243.585 30.5352 244.871 32.3633L218.871 63.6953ZM225.98 35.1055C225.337 34.8685 224.694 34.7161 224.051 34.6484C223.441 34.5807 222.798 34.5469 222.121 34.5469C220.225 34.5469 218.431 34.9023 216.738 35.6133C215.079 36.2904 213.624 37.2721 212.371 38.5586C211.152 39.8451 210.188 41.4023 209.477 43.2305C208.766 45.0247 208.41 47.056 208.41 49.3242C208.41 49.832 208.427 50.4076 208.461 51.0508C208.529 51.694 208.613 52.3542 208.715 53.0312C208.85 53.6745 209.003 54.3008 209.172 54.9102C209.341 55.5195 209.561 56.0612 209.832 56.5352L225.98 35.1055Z" fill="#4E598C"/>
<path d="M299.004 33.4297L288.848 43.6367C288.34 42.2148 287.646 40.9453 286.766 39.8281C285.885 38.6771 284.887 37.7122 283.77 36.9336C282.686 36.1549 281.501 35.5625 280.215 35.1562C278.928 34.75 277.608 34.5469 276.254 34.5469C274.358 34.5469 272.564 34.9362 270.871 35.7148C269.212 36.4935 267.757 37.5938 266.504 39.0156C265.285 40.4036 264.32 42.0625 263.609 43.9922C262.898 45.9219 262.543 48.0547 262.543 50.3906C262.543 52.2865 262.898 54.0638 263.609 55.7227C264.32 57.3815 265.285 58.8372 266.504 60.0898C267.757 61.3424 269.212 62.3242 270.871 63.0352C272.564 63.7461 274.358 64.1016 276.254 64.1016C277.608 64.1016 278.911 63.9154 280.164 63.543C281.417 63.1706 282.585 62.6458 283.668 61.9688C284.785 61.2578 285.767 60.4115 286.613 59.4297C287.493 58.4141 288.204 57.2969 288.746 56.0781L298.902 66.2852C297.616 68.1133 296.126 69.7552 294.434 71.2109C292.775 72.6667 290.964 73.9023 289 74.918C287.07 75.9336 285.022 76.6953 282.855 77.2031C280.723 77.7448 278.522 78.0156 276.254 78.0156C272.428 78.0156 268.823 77.3047 265.438 75.8828C262.086 74.4271 259.141 72.4466 256.602 69.9414C254.096 67.4362 252.116 64.5078 250.66 61.1562C249.204 57.8047 248.477 54.2161 248.477 50.3906C248.477 46.2266 249.204 42.3333 250.66 38.7109C252.116 35.0885 254.096 31.9401 256.602 29.2656C259.141 26.5573 262.086 24.4245 265.438 22.8672C268.823 21.3099 272.428 20.5312 276.254 20.5312C278.522 20.5312 280.74 20.819 282.906 21.3945C285.107 21.9701 287.189 22.8164 289.152 23.9336C291.15 25.0169 292.978 26.3542 294.637 27.9453C296.329 29.5365 297.785 31.3646 299.004 33.4297Z" fill="#4E598C"/>
<path d="M319.672 77H305.809V0.980469H319.672V25C321.331 23.7474 323.04 22.8672 324.801 22.3594C326.561 21.8177 328.355 21.5469 330.184 21.5469C333.535 21.5469 336.684 22.1901 339.629 23.4766C342.574 24.7292 345.13 26.4727 347.297 28.707C349.497 30.9076 351.224 33.4974 352.477 36.4766C353.763 39.4219 354.406 42.5703 354.406 45.9219V77H340.441V45.9219C340.441 44.5 340.272 43.1628 339.73 41.9102C339.189 40.6237 338.444 39.5065 337.496 38.5586C336.548 37.6107 335.448 36.8659 334.195 36.3242C332.943 35.7826 331.605 35.5117 330.184 35.5117C328.728 35.5117 327.357 35.7826 326.07 36.3242C324.784 36.8659 323.667 37.6107 322.719 38.5586C321.771 39.5065 321.026 40.6237 320.484 41.9102C319.943 43.1628 319.672 44.5 319.672 45.9219V77Z" fill="#4E598C"/>
<path d="M105 53.5C105 58.1944 101.194 62 96.5 62C91.8056 62 88 58.1944 88 53.5C88 48.8056 91.8056 45 96.5 45C101.194 45 105 48.8056 105 53.5Z" fill="#4E598C"/>
</svg>
