<svg width="28" height="28" viewBox="0 0 28 28" fill="none" xmlns="http://www.w3.org/2000/svg">
<g clip-path="url(#clip0_105_1916)">
<path d="M5.83301 10.5C5.83301 8.33411 6.69342 6.25688 8.22497 4.72534C9.75652 3.19379 11.8337 2.33337 13.9997 2.33337C16.1656 2.33337 18.2428 3.19379 19.7744 4.72534C21.3059 6.25688 22.1663 8.33411 22.1663 10.5V11.7075C24.145 11.991 25.6663 13.6932 25.6663 15.75V16.0417C25.6663 18.1125 23.8802 19.9279 21.779 19.831C20.9157 22.3044 18.72 23.9715 16.3505 24.3939C15.8022 24.5945 15.1535 24.5 14.583 24.5C14.1189 24.5 13.6738 24.3157 13.3456 23.9875C13.0174 23.6593 12.833 23.2142 12.833 22.75C12.833 22.2859 13.0174 21.8408 13.3456 21.5126C13.6738 21.1844 14.1189 21 14.583 21C15.5082 21 16.5325 20.8659 17.1578 21.7105C18.6698 20.9907 19.833 19.4705 19.833 17.5V10.5C19.833 8.95294 19.2184 7.46921 18.1245 6.37525C17.0305 5.28129 15.5468 4.66671 13.9997 4.66671C12.4526 4.66671 10.9688 5.28129 9.87489 6.37525C8.78092 7.46921 8.16634 8.95294 8.16634 10.5V17.7917C8.16634 18.3332 7.95124 18.8525 7.56835 19.2354C7.18546 19.6183 6.66616 19.8334 6.12467 19.8334C5.11906 19.8334 4.15464 19.4339 3.44356 18.7228C2.73249 18.0117 2.33301 17.0473 2.33301 16.0417V15.75C2.33276 14.768 2.68646 13.8187 3.32929 13.0762C3.97212 12.3338 4.861 11.8478 5.83301 11.7075V10.5Z" fill="black"/>
</g>
<defs>
<clipPath id="clip0_105_1916">
<rect width="28" height="28" fill="white"/>
</clipPath>
</defs>
</svg>
