<svg width="40" height="40" viewBox="0 0 40 40" fill="none" xmlns="http://www.w3.org/2000/svg">
<path d="M31.6668 3.33337H8.3335C7.00741 3.33337 5.73564 3.86016 4.79796 4.79784C3.86028 5.73552 3.3335 7.00729 3.3335 8.33337V31.6667C3.3335 32.9928 3.86028 34.2646 4.79796 35.2022C5.73564 36.1399 7.00741 36.6667 8.3335 36.6667H31.6668C32.9929 36.6667 34.2647 36.1399 35.2024 35.2022C36.14 34.2646 36.6668 32.9928 36.6668 31.6667V8.33337C36.6668 7.00729 36.14 5.73552 35.2024 4.79784C34.2647 3.86016 32.9929 3.33337 31.6668 3.33337ZM16.6668 6.66671H23.3335V11.8834L20.9168 10.2167C20.6447 10.0375 20.326 9.94198 20.0002 9.94198C19.6743 9.94198 19.3556 10.0375 19.0835 10.2167L16.6668 11.8834V6.66671ZM33.3335 31.6667C33.3335 32.1087 33.1579 32.5327 32.8453 32.8452C32.5328 33.1578 32.1089 33.3334 31.6668 33.3334H8.3335C7.89147 33.3334 7.46755 33.1578 7.15498 32.8452C6.84242 32.5327 6.66683 32.1087 6.66683 31.6667V8.33337C6.66683 7.89135 6.84242 7.46742 7.15498 7.15486C7.46755 6.8423 7.89147 6.66671 8.3335 6.66671H13.3335V15C13.3343 15.3015 13.4169 15.5972 13.5724 15.8555C13.728 16.1138 13.9507 16.325 14.2168 16.4667C14.4774 16.6005 14.7687 16.6633 15.0613 16.6487C15.3539 16.634 15.6375 16.5425 15.8835 16.3834L20.0002 13.6667L24.0835 16.3834C24.3342 16.5485 24.6248 16.6428 24.9246 16.6564C25.2244 16.67 25.5224 16.6024 25.787 16.4607C26.0515 16.319 26.273 16.1085 26.4278 15.8514C26.5827 15.5943 26.6653 15.3002 26.6668 15V6.66671H31.6668C32.1089 6.66671 32.5328 6.8423 32.8453 7.15486C33.1579 7.46742 33.3335 7.89135 33.3335 8.33337V31.6667Z" fill="black"/>
</svg>
