<svg width="28" height="28" viewBox="0 0 28 28" fill="none" xmlns="http://www.w3.org/2000/svg">
<path d="M2.67166 23.6717L6.99999 19.3783C5.31987 17.2835 4.50623 14.6245 4.72638 11.9482C4.94652 9.27185 6.18371 6.78158 8.18355 4.98942C10.1834 3.19726 12.7939 2.23943 15.4782 2.31288C18.1626 2.38634 20.7168 3.48549 22.6157 5.38433C24.5145 7.28317 25.6137 9.83738 25.6871 12.5217C25.7606 15.2061 24.8027 17.8166 23.0106 19.8164C21.2184 21.8163 18.7281 23.0535 16.0518 23.2736C13.3755 23.4938 10.7165 22.6801 8.62165 21L4.32832 25.2933C4.21986 25.4027 4.09083 25.4895 3.94866 25.5487C3.80649 25.6079 3.654 25.6384 3.49999 25.6384C3.34597 25.6384 3.19348 25.6079 3.05132 25.5487C2.90915 25.4895 2.78011 25.4027 2.67166 25.2933C2.46138 25.0758 2.34383 24.7851 2.34383 24.4825C2.34383 24.1799 2.46138 23.8892 2.67166 23.6717ZM15.1667 21C16.7819 21 18.3608 20.521 19.7038 19.6237C21.0468 18.7263 22.0936 17.4508 22.7117 15.9586C23.3298 14.4663 23.4915 12.8243 23.1764 11.2401C22.8613 9.65592 22.0835 8.20076 20.9414 7.05863C19.7992 5.9165 18.3441 5.1387 16.7599 4.82359C15.1757 4.50847 13.5337 4.6702 12.0414 5.28832C10.5491 5.90643 9.27368 6.95317 8.37632 8.29618C7.47895 9.63918 6.99999 11.2181 6.99999 12.8333C6.99999 14.9993 7.8604 17.0765 9.39195 18.608C10.9235 20.1396 13.0007 21 15.1667 21Z" fill="black"/>
</svg>
