<svg width="24" height="24" viewBox="0 0 24 24" fill="none" xmlns="http://www.w3.org/2000/svg">
<g clip-path="url(#clip0_105_1910)">
<path d="M12.2995 1.12486L20.1745 3.64486C20.7045 3.81435 21.167 4.1479 21.4951 4.59734C21.8232 5.04679 22 5.58889 22 6.14536V11.4254C22 13.7744 21.52 16.1984 20.0455 18.4484C18.571 20.6954 16.168 22.6679 12.4975 24.2309C12.1821 24.3652 11.8428 24.4345 11.5 24.4345C11.1572 24.4345 10.8179 24.3652 10.5025 24.2309C6.832 22.6679 4.429 20.6954 2.9545 18.4484C1.48 16.1984 1 13.7744 1 11.4254V6.14536C0.999954 5.58889 1.17675 5.04679 1.50488 4.59734C1.833 4.1479 2.29546 3.81435 2.8255 3.64486L10.7005 1.12486C11.2205 0.958378 11.7795 0.958378 12.2995 1.12486ZM11.3845 3.26836L11.386 3.26986L3.511 5.78987C3.43564 5.81415 3.36986 5.86158 3.323 5.9254C3.27614 5.98922 3.2506 6.06619 3.25 6.14536V11.4254C3.25 13.4654 3.6625 15.4244 4.8355 17.2139C6.0115 19.0049 8.017 20.7269 11.3845 22.1609C11.421 22.1765 11.4603 22.1845 11.5 22.1845C11.5397 22.1845 11.579 22.1765 11.6155 22.1609C14.983 20.7254 16.9885 19.0064 18.1645 17.2154C19.3375 15.4244 19.75 13.4624 19.75 11.4254V6.14536C19.7499 6.06588 19.7246 5.98846 19.6777 5.9243C19.6308 5.86013 19.5647 5.81253 19.489 5.78836L11.614 3.26836C11.5394 3.24438 11.4591 3.24438 11.3845 3.26836ZM16.42 10.3454L11.17 15.5954C10.9591 15.806 10.6731 15.9244 10.375 15.9244C10.0769 15.9244 9.79094 15.806 9.58 15.5954L7.33 13.3454C7.18191 13.2079 7.07366 13.033 7.01663 12.8391C6.95961 12.6452 6.95594 12.4395 7.006 12.2438C7.05606 12.048 7.158 11.8693 7.30108 11.7266C7.44416 11.5839 7.62308 11.4824 7.819 11.4329C8.01456 11.3827 8.22002 11.3862 8.41377 11.443C8.60751 11.4997 8.78239 11.6076 8.92 11.7554L10.375 13.2104L14.83 8.75536C15.0434 8.55675 15.3255 8.4486 15.6169 8.45363C15.9084 8.45867 16.1866 8.5765 16.393 8.78236C16.5989 8.98877 16.7167 9.26694 16.7217 9.55842C16.7268 9.8499 16.6186 10.132 16.42 10.3454Z" fill="black"/>
</g>
<defs>
<clipPath id="clip0_105_1910">
<rect width="24" height="24" fill="white"/>
</clipPath>
</defs>
</svg>
