<svg width="40" height="40" viewBox="0 0 40 40" fill="none" xmlns="http://www.w3.org/2000/svg">
<path d="M32.7165 6.08332C32.5229 5.92669 32.2966 5.81544 32.0543 5.75776C31.8121 5.70007 31.5599 5.69742 31.3165 5.74999C29.5356 6.12322 27.6971 6.12798 25.9142 5.76396C24.1314 5.39994 22.4419 4.67484 20.9498 3.63332C20.6709 3.43977 20.3394 3.33606 19.9998 3.33606C19.6603 3.33606 19.3288 3.43977 19.0498 3.63332C17.5578 4.67484 15.8683 5.39994 14.0855 5.76396C12.3026 6.12798 10.4641 6.12322 8.68318 5.74999C8.43974 5.69742 8.18762 5.70007 7.94535 5.75776C7.70307 5.81544 7.47681 5.92669 7.28318 6.08332C7.08981 6.24018 6.93405 6.43838 6.82733 6.66334C6.72062 6.88831 6.66567 7.13433 6.66651 7.38332V19.8C6.66503 22.1896 7.23447 24.5449 8.3274 26.6699C9.42034 28.7949 11.0051 30.628 12.9498 32.0167L19.0332 36.35C19.3154 36.551 19.6533 36.659 19.9998 36.659C20.3464 36.659 20.6842 36.551 20.9665 36.35L27.0498 32.0167C28.9945 30.628 30.5794 28.7949 31.6723 26.6699C32.7652 24.5449 33.3347 22.1896 33.3332 19.8V7.38332C33.334 7.13433 33.2791 6.88831 33.1724 6.66334C33.0656 6.43838 32.9099 6.24018 32.7165 6.08332ZM29.9998 19.8C30.0011 21.6579 29.5587 23.4893 28.7093 25.1417C27.8599 26.7941 26.6281 28.2197 25.1165 29.3L19.9998 32.95L14.8832 29.3C13.3716 28.2197 12.1398 26.7941 11.2904 25.1417C10.441 23.4893 9.99857 21.6579 9.99985 19.8V9.29998C13.4939 9.59904 16.9932 8.78836 19.9998 6.98332C23.0064 8.78836 26.5058 9.59904 29.9998 9.29998V19.8ZM22.5665 15.9833L18.0832 20.4833L16.5998 18.9833C16.286 18.6695 15.8603 18.4932 15.4165 18.4932C14.9727 18.4932 14.547 18.6695 14.2332 18.9833C13.9193 19.2972 13.743 19.7228 13.743 20.1667C13.743 20.6105 13.9193 21.0361 14.2332 21.35L16.8998 24.0167C17.0548 24.1729 17.2391 24.2969 17.4422 24.3815C17.6453 24.4661 17.8632 24.5096 18.0832 24.5096C18.3032 24.5096 18.521 24.4661 18.7241 24.3815C18.9272 24.2969 19.1116 24.1729 19.2665 24.0167L24.9998 18.3333C25.3137 18.0195 25.49 17.5938 25.49 17.15C25.49 16.7061 25.3137 16.2805 24.9998 15.9667C24.686 15.6528 24.2603 15.4765 23.8165 15.4765C23.3727 15.4765 22.947 15.6528 22.6332 15.9667L22.5665 15.9833Z" fill="black"/>
</svg>
