<svg width="24" height="24" viewBox="0 0 24 24" fill="none" xmlns="http://www.w3.org/2000/svg">
<path fill-rule="evenodd" clip-rule="evenodd" d="M21.663 8.77161C21.8156 8.89054 21.9305 9.0512 21.9936 9.23411C22.0423 9.41698 22.038 9.6099 21.9814 9.79046C21.9247 9.97101 21.818 10.1318 21.6736 10.2541L17.5436 14.2541L18.5436 19.9341C18.5793 20.1216 18.5606 20.3154 18.4898 20.4926C18.4189 20.6698 18.2988 20.823 18.1436 20.9341C17.972 21.0583 17.7655 21.1249 17.5536 21.1241C17.3925 21.1246 17.234 21.0833 17.0936 21.0041L11.9936 18.3241L6.87363 20.9941C6.7094 21.0812 6.52415 21.1208 6.33868 21.1084C6.1532 21.096 5.97485 21.0322 5.82363 20.9241C5.66848 20.813 5.54838 20.6598 5.4775 20.4826C5.40662 20.3054 5.38793 20.1116 5.42363 19.9241L6.42363 14.2441L2.29363 10.2441C2.16509 10.1158 2.0739 9.95498 2.02986 9.7788C1.98581 9.60263 1.99057 9.41778 2.04363 9.24411C2.10159 9.06638 2.20821 8.90846 2.35138 8.78827C2.49455 8.66807 2.66855 8.59042 2.85363 8.56411L8.54363 7.72411L11.0936 2.56411C11.1755 2.39504 11.3034 2.25245 11.4625 2.15268C11.6217 2.05291 11.8058 2 11.9936 2C12.1815 2 12.3655 2.05291 12.5247 2.15268C12.6839 2.25245 12.8117 2.39504 12.8936 2.56411L15.4436 7.73411L21.1336 8.56411C21.3264 8.58061 21.5103 8.65269 21.663 8.77161ZM15.5881 13.6431C15.6386 13.488 15.7264 13.3475 15.8436 13.2341L18.1436 10.2541L14.6336 9.63411C14.4716 9.61158 14.3176 9.54965 14.1851 9.45376C14.0526 9.35787 13.9457 9.23095 13.8736 9.08411L11.9936 5.5L10.2136 9.07411C10.1416 9.22095 10.0346 9.34787 9.90213 9.44376C9.76963 9.53965 9.61563 9.60158 9.45363 9.62411L5.24363 10.2341L8.24363 13.2341C8.36091 13.3475 8.44865 13.488 8.49919 13.6431C8.54974 13.7982 8.56157 13.9634 8.53363 14.1241L7.81363 18.3141L11.5736 16.3141C11.7183 16.2371 11.8797 16.1968 12.0436 16.1968C12.2075 16.1968 12.3689 16.2371 12.5136 16.3141L16.2736 18.3141L15.5536 14.1241C15.5257 13.9634 15.5375 13.7982 15.5881 13.6431Z" fill="black"/>
</svg>
