<svg width="29" height="29" viewBox="0 0 29 29" fill="none" xmlns="http://www.w3.org/2000/svg">
<path d="M6.04199 20.5417C6.04199 21.1826 6.2966 21.7973 6.74982 22.2505C7.20303 22.7037 7.81772 22.9583 8.45866 22.9583C9.0996 22.9583 9.71429 22.7037 10.1675 22.2505C10.6207 21.7973 10.8753 21.1826 10.8753 20.5417C10.8753 19.9007 10.6207 19.286 10.1675 18.8328C9.71429 18.3796 9.0996 18.125 8.45866 18.125C7.81772 18.125 7.20303 18.3796 6.74982 18.8328C6.2966 19.286 6.04199 19.9007 6.04199 20.5417ZM18.1253 20.5417C18.1253 21.1826 18.3799 21.7973 18.8332 22.2505C19.2864 22.7037 19.9011 22.9583 20.542 22.9583C21.1829 22.9583 21.7976 22.7037 22.2508 22.2505C22.704 21.7973 22.9587 21.1826 22.9587 20.5417C22.9587 19.9007 22.704 19.286 22.2508 18.8328C21.7976 18.3796 21.1829 18.125 20.542 18.125C19.9011 18.125 19.2864 18.3796 18.8332 18.8328C18.3799 19.286 18.1253 19.9007 18.1253 20.5417Z" stroke="black" stroke-width="2" stroke-linecap="round" stroke-linejoin="round"/>
<path d="M6.04167 20.5416H3.625V7.24996C3.625 6.92949 3.75231 6.62215 3.97891 6.39554C4.20552 6.16893 4.51286 6.04163 4.83333 6.04163H15.7083V13.2916H9.66667M9.66667 13.2916L12.0833 15.7083M9.66667 13.2916L12.0833 10.875M10.875 20.5416H18.125M15.7083 7.24996H21.75L25.375 13.2916V20.5416H22.9583" stroke="black" stroke-width="2" stroke-linecap="round" stroke-linejoin="round"/>
</svg>
