<svg width="46" height="46" viewBox="0 0 46 46" fill="none" xmlns="http://www.w3.org/2000/svg">
<path d="M46 23C46 35.7025 35.7025 46 23 46C10.2975 46 0 35.7025 0 23C0 10.2975 10.2975 0 23 0C35.7025 0 46 10.2975 46 23Z" fill="#D9D9D9"/>
<path d="M8 40.2291C8.27295 40.5384 8.5553 40.8391 8.84663 41.1309C9.58492 41.708 10.3594 42.2411 11.166 42.726C11.2749 42.5017 11.3331 42.2537 11.3333 42V38.6667L11.3417 38.3733C11.4165 37.1002 11.975 35.9037 12.9029 35.0288C13.8308 34.1539 15.058 33.6666 16.3333 33.6667H29.6667L29.96 33.675C31.2332 33.7498 32.4296 34.3083 33.3045 35.2362C34.1795 36.1641 34.6667 37.3913 34.6667 38.6667V42L34.6783 42.195C34.7005 42.3811 34.7536 42.5604 34.834 42.726C35.6406 42.2411 36.4151 41.708 37.1534 41.1309C37.4447 40.8391 37.7271 40.5384 38 40.2291V38.6667L37.9917 38.305C37.8985 36.1596 36.9807 34.133 35.4296 32.6478C33.8786 31.1626 31.8141 30.3335 29.6667 30.3333H16.3333L15.9717 30.3417C13.8263 30.4349 11.7996 31.3527 10.3144 32.9037C8.82924 34.4547 8.00012 36.5192 8 38.6667V40.2291Z" fill="#496992"/>
<path fill-rule="evenodd" clip-rule="evenodd" d="M28.8926 12.7741C27.3298 11.2113 25.2101 10.3333 23 10.3333C20.7899 10.3333 18.6702 11.2113 17.1074 12.7741C15.5446 14.3369 14.6667 16.4565 14.6667 18.6667C14.6667 20.8768 15.5446 22.9964 17.1074 24.5592C18.6702 26.122 20.7899 27 23 27C25.2101 27 27.3298 26.122 28.8926 24.5592C30.4554 22.9964 31.3333 20.8768 31.3333 18.6667C31.3333 16.4565 30.4554 14.3369 28.8926 12.7741ZM21.0866 14.0473C21.6932 13.796 22.3434 13.6667 23 13.6667C24.3261 13.6667 25.5979 14.1935 26.5355 15.1311C27.4732 16.0688 28 17.3406 28 18.6667C28 19.9928 27.4732 21.2645 26.5355 22.2022C25.5979 23.1399 24.3261 23.6667 23 23.6667C22.3434 23.6667 21.6932 23.5373 21.0866 23.2861C20.48 23.0348 19.9288 22.6665 19.4645 22.2022C19.0002 21.7379 18.6319 21.1867 18.3806 20.5801C18.1293 19.9735 18 19.3233 18 18.6667C18 18.0101 18.1293 17.3599 18.3806 16.7533C18.6319 16.1466 19.0002 15.5954 19.4645 15.1311C19.9288 14.6668 20.48 14.2985 21.0866 14.0473Z" fill="#496992"/>
</svg>
